<svg xmlns="http://www.w3.org/2000/svg" width="1200" height="630" viewBox="0 0 1200 630">
<defs>
  <filter id="glow" x="-60%" y="-60%" width="220%" height="220%">
    <feGaussianBlur stdDeviation="7" result="b"/>
    <feMerge><feMergeNode in="b"/><feMergeNode in="SourceGraphic"/></feMerge>
  </filter>
  <linearGradient id="vig" x1="0" y1="0" x2="0" y2="1">
    <stop offset="0%" stop-color="#0a0a0b" stop-opacity="0"/>
    <stop offset="100%" stop-color="#0a0a0b" stop-opacity="0.85"/>
  </linearGradient>
</defs>
<rect width="1200" height="630" fill="#0a0a0b"/>
<circle cx="40" cy="40" r="1.4" fill="#1c1c20"/><circle cx="80" cy="40" r="1.4" fill="#1c1c20"/><circle cx="120" cy="40" r="1.4" fill="#1c1c20"/><circle cx="160" cy="40" r="1.4" fill="#1c1c20"/><circle cx="200" cy="40" r="1.4" fill="#1c1c20"/><circle cx="240" cy="40" r="1.4" fill="#1c1c20"/><circle cx="280" cy="40" r="1.4" fill="#1c1c20"/><circle cx="320" cy="40" r="1.4" fill="#1c1c20"/><circle cx="360" cy="40" r="1.4" fill="#1c1c20"/><circle cx="400" cy="40" r="1.4" fill="#1c1c20"/><circle cx="440" cy="40" r="1.4" fill="#1c1c20"/><circle cx="480" cy="40" r="1.4" fill="#1c1c20"/><circle cx="520" cy="40" r="1.4" fill="#1c1c20"/><circle cx="560" cy="40" r="1.4" fill="#1c1c20"/><circle cx="600" cy="40" r="1.4" fill="#1c1c20"/><circle cx="640" cy="40" r="1.4" fill="#1c1c20"/><circle cx="680" cy="40" r="1.4" fill="#1c1c20"/><circle cx="720" cy="40" r="1.4" fill="#1c1c20"/><circle cx="760" cy="40" r="1.4" fill="#1c1c20"/><circle cx="800" cy="40" r="1.4" fill="#1c1c20"/><circle cx="840" cy="40" r="1.4" fill="#1c1c20"/><circle cx="880" cy="40" r="1.4" fill="#1c1c20"/><circle cx="920" cy="40" r="1.4" fill="#1c1c20"/><circle cx="960" cy="40" r="1.4" fill="#1c1c20"/><circle cx="1000" cy="40" r="1.4" fill="#1c1c20"/><circle cx="1040" cy="40" r="1.4" fill="#1c1c20"/><circle cx="1080" cy="40" r="1.4" fill="#1c1c20"/><circle cx="1120" cy="40" r="1.4" fill="#1c1c20"/><circle cx="1160" cy="40" r="1.4" fill="#1c1c20"/><circle cx="40" cy="80" r="1.4" fill="#1c1c20"/><circle cx="80" cy="80" r="1.4" fill="#1c1c20"/><circle cx="120" cy="80" r="1.4" fill="#1c1c20"/><circle cx="160" cy="80" r="1.4" fill="#1c1c20"/><circle cx="200" cy="80" r="1.4" fill="#1c1c20"/><circle cx="240" cy="80" r="1.4" fill="#1c1c20"/><circle cx="280" cy="80" r="1.4" fill="#1c1c20"/><circle cx="320" cy="80" r="1.4" fill="#1c1c20"/><circle cx="360" cy="80" r="1.4" fill="#1c1c20"/><circle cx="400" cy="80" r="1.4" fill="#1c1c20"/><circle cx="440" cy="80" r="1.4" fill="#1c1c20"/><circle cx="480" cy="80" r="1.4" fill="#1c1c20"/><circle cx="520" cy="80" r="1.4" fill="#1c1c20"/><circle cx="560" cy="80" r="1.4" fill="#1c1c20"/><circle cx="600" cy="80" r="1.4" fill="#1c1c20"/><circle cx="640" cy="80" r="1.4" fill="#1c1c20"/><circle cx="680" cy="80" r="1.4" fill="#1c1c20"/><circle cx="720" cy="80" r="1.4" fill="#1c1c20"/><circle cx="760" cy="80" r="1.4" fill="#1c1c20"/><circle cx="800" cy="80" r="1.4" fill="#1c1c20"/><circle cx="840" cy="80" r="1.4" fill="#1c1c20"/><circle cx="880" cy="80" r="1.4" fill="#1c1c20"/><circle cx="920" cy="80" r="1.4" fill="#1c1c20"/><circle cx="960" cy="80" r="1.4" fill="#1c1c20"/><circle cx="1000" cy="80" r="1.4" fill="#1c1c20"/><circle cx="1040" cy="80" r="1.4" fill="#1c1c20"/><circle cx="1080" cy="80" r="1.4" fill="#1c1c20"/><circle cx="1120" cy="80" r="1.4" fill="#1c1c20"/><circle cx="1160" cy="80" r="1.4" fill="#1c1c20"/><circle cx="40" cy="120" r="1.4" fill="#1c1c20"/><circle cx="80" cy="120" r="1.4" fill="#1c1c20"/><circle cx="120" cy="120" r="1.4" fill="#1c1c20"/><circle cx="160" cy="120" r="1.4" fill="#1c1c20"/><circle cx="200" cy="120" r="1.4" fill="#1c1c20"/><circle cx="240" cy="120" r="1.4" fill="#1c1c20"/><circle cx="280" cy="120" r="1.4" fill="#1c1c20"/><circle cx="320" cy="120" r="1.4" fill="#1c1c20"/><circle cx="360" cy="120" r="1.4" fill="#1c1c20"/><circle cx="400" cy="120" r="1.4" fill="#1c1c20"/><circle cx="440" cy="120" r="1.4" fill="#1c1c20"/><circle cx="480" cy="120" r="1.4" fill="#1c1c20"/><circle cx="520" cy="120" r="1.4" fill="#1c1c20"/><circle cx="560" cy="120" r="1.4" fill="#1c1c20"/><circle cx="600" cy="120" r="1.4" fill="#1c1c20"/><circle cx="640" cy="120" r="1.4" fill="#1c1c20"/><circle cx="680" cy="120" r="1.4" fill="#1c1c20"/><circle cx="720" cy="120" r="1.4" fill="#1c1c20"/><circle cx="760" cy="120" r="1.4" fill="#1c1c20"/><circle cx="800" cy="120" r="1.4" fill="#1c1c20"/><circle cx="840" cy="120" r="1.4" fill="#1c1c20"/><circle cx="880" cy="120" r="1.4" fill="#1c1c20"/><circle cx="920" cy="120" r="1.4" fill="#1c1c20"/><circle cx="960" cy="120" r="1.4" fill="#1c1c20"/><circle cx="1000" cy="120" r="1.4" fill="#1c1c20"/><circle cx="1040" cy="120" r="1.4" fill="#1c1c20"/><circle cx="1080" cy="120" r="1.4" fill="#1c1c20"/><circle cx="1120" cy="120" r="1.4" fill="#1c1c20"/><circle cx="1160" cy="120" r="1.4" fill="#1c1c20"/><circle cx="40" cy="160" r="1.4" fill="#1c1c20"/><circle cx="80" cy="160" r="1.4" fill="#1c1c20"/><circle cx="120" cy="160" r="1.4" fill="#1c1c20"/><circle cx="160" cy="160" r="1.4" fill="#1c1c20"/><circle cx="200" cy="160" r="1.4" fill="#1c1c20"/><circle cx="240" cy="160" r="1.4" fill="#1c1c20"/><circle cx="280" cy="160" r="1.4" fill="#1c1c20"/><circle cx="320" cy="160" r="1.4" fill="#1c1c20"/><circle cx="360" cy="160" r="1.4" fill="#1c1c20"/><circle cx="400" cy="160" r="1.4" fill="#1c1c20"/><circle cx="440" cy="160" r="1.4" fill="#1c1c20"/><circle cx="480" cy="160" r="1.4" fill="#1c1c20"/><circle cx="520" cy="160" r="1.4" fill="#1c1c20"/><circle cx="560" cy="160" r="1.4" fill="#1c1c20"/><circle cx="600" cy="160" r="1.4" fill="#1c1c20"/><circle cx="640" cy="160" r="1.4" fill="#1c1c20"/><circle cx="680" cy="160" r="1.4" fill="#1c1c20"/><circle cx="720" cy="160" r="1.4" fill="#1c1c20"/><circle cx="760" cy="160" r="1.4" fill="#1c1c20"/><circle cx="800" cy="160" r="1.4" fill="#1c1c20"/><circle cx="840" cy="160" r="1.4" fill="#1c1c20"/><circle cx="880" cy="160" r="1.4" fill="#1c1c20"/><circle cx="920" cy="160" r="1.4" fill="#1c1c20"/><circle cx="960" cy="160" r="1.4" fill="#1c1c20"/><circle cx="1000" cy="160" r="1.4" fill="#1c1c20"/><circle cx="1040" cy="160" r="1.4" fill="#1c1c20"/><circle cx="1080" cy="160" r="1.4" fill="#1c1c20"/><circle cx="1120" cy="160" r="1.4" fill="#1c1c20"/><circle cx="1160" cy="160" r="1.4" fill="#1c1c20"/><circle cx="40" cy="200" r="1.4" fill="#1c1c20"/><circle cx="80" cy="200" r="1.4" fill="#1c1c20"/><circle cx="120" cy="200" r="1.4" fill="#1c1c20"/><circle cx="160" cy="200" r="1.4" fill="#1c1c20"/><circle cx="200" cy="200" r="1.4" fill="#1c1c20"/><circle cx="240" cy="200" r="1.4" fill="#1c1c20"/><circle cx="280" cy="200" r="1.4" fill="#1c1c20"/><circle cx="320" cy="200" r="1.4" fill="#1c1c20"/><circle cx="360" cy="200" r="1.4" fill="#1c1c20"/><circle cx="400" cy="200" r="1.4" fill="#1c1c20"/><circle cx="440" cy="200" r="1.4" fill="#1c1c20"/><circle cx="480" cy="200" r="1.4" fill="#1c1c20"/><circle cx="520" cy="200" r="1.4" fill="#1c1c20"/><circle cx="560" cy="200" r="1.4" fill="#1c1c20"/><circle cx="600" cy="200" r="1.4" fill="#1c1c20"/><circle cx="640" cy="200" r="1.4" fill="#1c1c20"/><circle cx="680" cy="200" r="1.4" fill="#1c1c20"/><circle cx="720" cy="200" r="1.4" fill="#1c1c20"/><circle cx="760" cy="200" r="1.4" fill="#1c1c20"/><circle cx="800" cy="200" r="1.4" fill="#1c1c20"/><circle cx="840" cy="200" r="1.4" fill="#1c1c20"/><circle cx="880" cy="200" r="1.4" fill="#1c1c20"/><circle cx="920" cy="200" r="1.4" fill="#1c1c20"/><circle cx="960" cy="200" r="1.4" fill="#1c1c20"/><circle cx="1000" cy="200" r="1.4" fill="#1c1c20"/><circle cx="1040" cy="200" r="1.4" fill="#1c1c20"/><circle cx="1080" cy="200" r="1.4" fill="#1c1c20"/><circle cx="1120" cy="200" r="1.4" fill="#1c1c20"/><circle cx="1160" cy="200" r="1.4" fill="#1c1c20"/><circle cx="40" cy="240" r="1.4" fill="#1c1c20"/><circle cx="80" cy="240" r="1.4" fill="#1c1c20"/><circle cx="120" cy="240" r="1.4" fill="#1c1c20"/><circle cx="160" cy="240" r="1.4" fill="#1c1c20"/><circle cx="200" cy="240" r="1.4" fill="#1c1c20"/><circle cx="240" cy="240" r="1.4" fill="#1c1c20"/><circle cx="280" cy="240" r="1.4" fill="#1c1c20"/><circle cx="320" cy="240" r="1.4" fill="#1c1c20"/><circle cx="360" cy="240" r="1.4" fill="#1c1c20"/><circle cx="400" cy="240" r="1.4" fill="#1c1c20"/><circle cx="440" cy="240" r="1.4" fill="#1c1c20"/><circle cx="480" cy="240" r="1.4" fill="#1c1c20"/><circle cx="520" cy="240" r="1.4" fill="#1c1c20"/><circle cx="560" cy="240" r="1.4" fill="#1c1c20"/><circle cx="600" cy="240" r="1.4" fill="#1c1c20"/><circle cx="640" cy="240" r="1.4" fill="#1c1c20"/><circle cx="680" cy="240" r="1.4" fill="#1c1c20"/><circle cx="720" cy="240" r="1.4" fill="#1c1c20"/><circle cx="760" cy="240" r="1.4" fill="#1c1c20"/><circle cx="800" cy="240" r="1.4" fill="#1c1c20"/><circle cx="840" cy="240" r="1.4" fill="#1c1c20"/><circle cx="880" cy="240" r="1.4" fill="#1c1c20"/><circle cx="920" cy="240" r="1.4" fill="#1c1c20"/><circle cx="960" cy="240" r="1.4" fill="#1c1c20"/><circle cx="1000" cy="240" r="1.4" fill="#1c1c20"/><circle cx="1040" cy="240" r="1.4" fill="#1c1c20"/><circle cx="1080" cy="240" r="1.4" fill="#1c1c20"/><circle cx="1120" cy="240" r="1.4" fill="#1c1c20"/><circle cx="1160" cy="240" r="1.4" fill="#1c1c20"/><circle cx="40" cy="280" r="1.4" fill="#1c1c20"/><circle cx="80" cy="280" r="1.4" fill="#1c1c20"/><circle cx="120" cy="280" r="1.4" fill="#1c1c20"/><circle cx="160" cy="280" r="1.4" fill="#1c1c20"/><circle cx="200" cy="280" r="1.4" fill="#1c1c20"/><circle cx="240" cy="280" r="1.4" fill="#1c1c20"/><circle cx="280" cy="280" r="1.4" fill="#1c1c20"/><circle cx="320" cy="280" r="1.4" fill="#1c1c20"/><circle cx="360" cy="280" r="1.4" fill="#1c1c20"/><circle cx="400" cy="280" r="1.4" fill="#1c1c20"/><circle cx="440" cy="280" r="1.4" fill="#1c1c20"/><circle cx="480" cy="280" r="1.4" fill="#1c1c20"/><circle cx="520" cy="280" r="1.4" fill="#1c1c20"/><circle cx="560" cy="280" r="1.4" fill="#1c1c20"/><circle cx="600" cy="280" r="1.4" fill="#1c1c20"/><circle cx="640" cy="280" r="1.4" fill="#1c1c20"/><circle cx="680" cy="280" r="1.4" fill="#1c1c20"/><circle cx="720" cy="280" r="1.4" fill="#1c1c20"/><circle cx="760" cy="280" r="1.4" fill="#1c1c20"/><circle cx="800" cy="280" r="1.4" fill="#1c1c20"/><circle cx="840" cy="280" r="1.4" fill="#1c1c20"/><circle cx="880" cy="280" r="1.4" fill="#1c1c20"/><circle cx="920" cy="280" r="1.4" fill="#1c1c20"/><circle cx="960" cy="280" r="1.4" fill="#1c1c20"/><circle cx="1000" cy="280" r="1.4" fill="#1c1c20"/><circle cx="1040" cy="280" r="1.4" fill="#1c1c20"/><circle cx="1080" cy="280" r="1.4" fill="#1c1c20"/><circle cx="1120" cy="280" r="1.4" fill="#1c1c20"/><circle cx="1160" cy="280" r="1.4" fill="#1c1c20"/><circle cx="40" cy="320" r="1.4" fill="#1c1c20"/><circle cx="80" cy="320" r="1.4" fill="#1c1c20"/><circle cx="120" cy="320" r="1.4" fill="#1c1c20"/><circle cx="160" cy="320" r="1.4" fill="#1c1c20"/><circle cx="200" cy="320" r="1.4" fill="#1c1c20"/><circle cx="240" cy="320" r="1.4" fill="#1c1c20"/><circle cx="280" cy="320" r="1.4" fill="#1c1c20"/><circle cx="320" cy="320" r="1.4" fill="#1c1c20"/><circle cx="360" cy="320" r="1.4" fill="#1c1c20"/><circle cx="400" cy="320" r="1.4" fill="#1c1c20"/><circle cx="440" cy="320" r="1.4" fill="#1c1c20"/><circle cx="480" cy="320" r="1.4" fill="#1c1c20"/><circle cx="520" cy="320" r="1.4" fill="#1c1c20"/><circle cx="560" cy="320" r="1.4" fill="#1c1c20"/><circle cx="600" cy="320" r="1.4" fill="#1c1c20"/><circle cx="640" cy="320" r="1.4" fill="#1c1c20"/><circle cx="680" cy="320" r="1.4" fill="#1c1c20"/><circle cx="720" cy="320" r="1.4" fill="#1c1c20"/><circle cx="760" cy="320" r="1.4" fill="#1c1c20"/><circle cx="800" cy="320" r="1.4" fill="#1c1c20"/><circle cx="840" cy="320" r="1.4" fill="#1c1c20"/><circle cx="880" cy="320" r="1.4" fill="#1c1c20"/><circle cx="920" cy="320" r="1.4" fill="#1c1c20"/><circle cx="960" cy="320" r="1.4" fill="#1c1c20"/><circle cx="1000" cy="320" r="1.4" fill="#1c1c20"/><circle cx="1040" cy="320" r="1.4" fill="#1c1c20"/><circle cx="1080" cy="320" r="1.4" fill="#1c1c20"/><circle cx="1120" cy="320" r="1.4" fill="#1c1c20"/><circle cx="1160" cy="320" r="1.4" fill="#1c1c20"/><circle cx="40" cy="360" r="1.4" fill="#1c1c20"/><circle cx="80" cy="360" r="1.4" fill="#1c1c20"/><circle cx="120" cy="360" r="1.4" fill="#1c1c20"/><circle cx="160" cy="360" r="1.4" fill="#1c1c20"/><circle cx="200" cy="360" r="1.4" fill="#1c1c20"/><circle cx="240" cy="360" r="1.4" fill="#1c1c20"/><circle cx="280" cy="360" r="1.4" fill="#1c1c20"/><circle cx="320" cy="360" r="1.4" fill="#1c1c20"/><circle cx="360" cy="360" r="1.4" fill="#1c1c20"/><circle cx="400" cy="360" r="1.4" fill="#1c1c20"/><circle cx="440" cy="360" r="1.4" fill="#1c1c20"/><circle cx="480" cy="360" r="1.4" fill="#1c1c20"/><circle cx="520" cy="360" r="1.4" fill="#1c1c20"/><circle cx="560" cy="360" r="1.4" fill="#1c1c20"/><circle cx="600" cy="360" r="1.4" fill="#1c1c20"/><circle cx="640" cy="360" r="1.4" fill="#1c1c20"/><circle cx="680" cy="360" r="1.4" fill="#1c1c20"/><circle cx="720" cy="360" r="1.4" fill="#1c1c20"/><circle cx="760" cy="360" r="1.4" fill="#1c1c20"/><circle cx="800" cy="360" r="1.4" fill="#1c1c20"/><circle cx="840" cy="360" r="1.4" fill="#1c1c20"/><circle cx="880" cy="360" r="1.4" fill="#1c1c20"/><circle cx="920" cy="360" r="1.4" fill="#1c1c20"/><circle cx="960" cy="360" r="1.4" fill="#1c1c20"/><circle cx="1000" cy="360" r="1.4" fill="#1c1c20"/><circle cx="1040" cy="360" r="1.4" fill="#1c1c20"/><circle cx="1080" cy="360" r="1.4" fill="#1c1c20"/><circle cx="1120" cy="360" r="1.4" fill="#1c1c20"/><circle cx="1160" cy="360" r="1.4" fill="#1c1c20"/><circle cx="40" cy="400" r="1.4" fill="#1c1c20"/><circle cx="80" cy="400" r="1.4" fill="#1c1c20"/><circle cx="120" cy="400" r="1.4" fill="#1c1c20"/><circle cx="160" cy="400" r="1.4" fill="#1c1c20"/><circle cx="200" cy="400" r="1.4" fill="#1c1c20"/><circle cx="240" cy="400" r="1.4" fill="#1c1c20"/><circle cx="280" cy="400" r="1.4" fill="#1c1c20"/><circle cx="320" cy="400" r="1.4" fill="#1c1c20"/><circle cx="360" cy="400" r="1.4" fill="#1c1c20"/><circle cx="400" cy="400" r="1.4" fill="#1c1c20"/><circle cx="440" cy="400" r="1.4" fill="#1c1c20"/><circle cx="480" cy="400" r="1.4" fill="#1c1c20"/><circle cx="520" cy="400" r="1.4" fill="#1c1c20"/><circle cx="560" cy="400" r="1.4" fill="#1c1c20"/><circle cx="600" cy="400" r="1.4" fill="#1c1c20"/><circle cx="640" cy="400" r="1.4" fill="#1c1c20"/><circle cx="680" cy="400" r="1.4" fill="#1c1c20"/><circle cx="720" cy="400" r="1.4" fill="#1c1c20"/><circle cx="760" cy="400" r="1.4" fill="#1c1c20"/><circle cx="800" cy="400" r="1.4" fill="#1c1c20"/><circle cx="840" cy="400" r="1.4" fill="#1c1c20"/><circle cx="880" cy="400" r="1.4" fill="#1c1c20"/><circle cx="920" cy="400" r="1.4" fill="#1c1c20"/><circle cx="960" cy="400" r="1.4" fill="#1c1c20"/><circle cx="1000" cy="400" r="1.4" fill="#1c1c20"/><circle cx="1040" cy="400" r="1.4" fill="#1c1c20"/><circle cx="1080" cy="400" r="1.4" fill="#1c1c20"/><circle cx="1120" cy="400" r="1.4" fill="#1c1c20"/><circle cx="1160" cy="400" r="1.4" fill="#1c1c20"/><circle cx="40" cy="440" r="1.4" fill="#1c1c20"/><circle cx="80" cy="440" r="1.4" fill="#1c1c20"/><circle cx="120" cy="440" r="1.4" fill="#1c1c20"/><circle cx="160" cy="440" r="1.4" fill="#1c1c20"/><circle cx="200" cy="440" r="1.4" fill="#1c1c20"/><circle cx="240" cy="440" r="1.4" fill="#1c1c20"/><circle cx="280" cy="440" r="1.4" fill="#1c1c20"/><circle cx="320" cy="440" r="1.4" fill="#1c1c20"/><circle cx="360" cy="440" r="1.4" fill="#1c1c20"/><circle cx="400" cy="440" r="1.4" fill="#1c1c20"/><circle cx="440" cy="440" r="1.4" fill="#1c1c20"/><circle cx="480" cy="440" r="1.4" fill="#1c1c20"/><circle cx="520" cy="440" r="1.4" fill="#1c1c20"/><circle cx="560" cy="440" r="1.4" fill="#1c1c20"/><circle cx="600" cy="440" r="1.4" fill="#1c1c20"/><circle cx="640" cy="440" r="1.4" fill="#1c1c20"/><circle cx="680" cy="440" r="1.4" fill="#1c1c20"/><circle cx="720" cy="440" r="1.4" fill="#1c1c20"/><circle cx="760" cy="440" r="1.4" fill="#1c1c20"/><circle cx="800" cy="440" r="1.4" fill="#1c1c20"/><circle cx="840" cy="440" r="1.4" fill="#1c1c20"/><circle cx="880" cy="440" r="1.4" fill="#1c1c20"/><circle cx="920" cy="440" r="1.4" fill="#1c1c20"/><circle cx="960" cy="440" r="1.4" fill="#1c1c20"/><circle cx="1000" cy="440" r="1.4" fill="#1c1c20"/><circle cx="1040" cy="440" r="1.4" fill="#1c1c20"/><circle cx="1080" cy="440" r="1.4" fill="#1c1c20"/><circle cx="1120" cy="440" r="1.4" fill="#1c1c20"/><circle cx="1160" cy="440" r="1.4" fill="#1c1c20"/><circle cx="40" cy="480" r="1.4" fill="#1c1c20"/><circle cx="80" cy="480" r="1.4" fill="#1c1c20"/><circle cx="120" cy="480" r="1.4" fill="#1c1c20"/><circle cx="160" cy="480" r="1.4" fill="#1c1c20"/><circle cx="200" cy="480" r="1.4" fill="#1c1c20"/><circle cx="240" cy="480" r="1.4" fill="#1c1c20"/><circle cx="280" cy="480" r="1.4" fill="#1c1c20"/><circle cx="320" cy="480" r="1.4" fill="#1c1c20"/><circle cx="360" cy="480" r="1.4" fill="#1c1c20"/><circle cx="400" cy="480" r="1.4" fill="#1c1c20"/><circle cx="440" cy="480" r="1.4" fill="#1c1c20"/><circle cx="480" cy="480" r="1.4" fill="#1c1c20"/><circle cx="520" cy="480" r="1.4" fill="#1c1c20"/><circle cx="560" cy="480" r="1.4" fill="#1c1c20"/><circle cx="600" cy="480" r="1.4" fill="#1c1c20"/><circle cx="640" cy="480" r="1.4" fill="#1c1c20"/><circle cx="680" cy="480" r="1.4" fill="#1c1c20"/><circle cx="720" cy="480" r="1.4" fill="#1c1c20"/><circle cx="760" cy="480" r="1.4" fill="#1c1c20"/><circle cx="800" cy="480" r="1.4" fill="#1c1c20"/><circle cx="840" cy="480" r="1.4" fill="#1c1c20"/><circle cx="880" cy="480" r="1.4" fill="#1c1c20"/><circle cx="920" cy="480" r="1.4" fill="#1c1c20"/><circle cx="960" cy="480" r="1.4" fill="#1c1c20"/><circle cx="1000" cy="480" r="1.4" fill="#1c1c20"/><circle cx="1040" cy="480" r="1.4" fill="#1c1c20"/><circle cx="1080" cy="480" r="1.4" fill="#1c1c20"/><circle cx="1120" cy="480" r="1.4" fill="#1c1c20"/><circle cx="1160" cy="480" r="1.4" fill="#1c1c20"/><circle cx="40" cy="520" r="1.4" fill="#1c1c20"/><circle cx="80" cy="520" r="1.4" fill="#1c1c20"/><circle cx="120" cy="520" r="1.4" fill="#1c1c20"/><circle cx="160" cy="520" r="1.4" fill="#1c1c20"/><circle cx="200" cy="520" r="1.4" fill="#1c1c20"/><circle cx="240" cy="520" r="1.4" fill="#1c1c20"/><circle cx="280" cy="520" r="1.4" fill="#1c1c20"/><circle cx="320" cy="520" r="1.4" fill="#1c1c20"/><circle cx="360" cy="520" r="1.4" fill="#1c1c20"/><circle cx="400" cy="520" r="1.4" fill="#1c1c20"/><circle cx="440" cy="520" r="1.4" fill="#1c1c20"/><circle cx="480" cy="520" r="1.4" fill="#1c1c20"/><circle cx="520" cy="520" r="1.4" fill="#1c1c20"/><circle cx="560" cy="520" r="1.4" fill="#1c1c20"/><circle cx="600" cy="520" r="1.4" fill="#1c1c20"/><circle cx="640" cy="520" r="1.4" fill="#1c1c20"/><circle cx="680" cy="520" r="1.4" fill="#1c1c20"/><circle cx="720" cy="520" r="1.4" fill="#1c1c20"/><circle cx="760" cy="520" r="1.4" fill="#1c1c20"/><circle cx="800" cy="520" r="1.4" fill="#1c1c20"/><circle cx="840" cy="520" r="1.4" fill="#1c1c20"/><circle cx="880" cy="520" r="1.4" fill="#1c1c20"/><circle cx="920" cy="520" r="1.4" fill="#1c1c20"/><circle cx="960" cy="520" r="1.4" fill="#1c1c20"/><circle cx="1000" cy="520" r="1.4" fill="#1c1c20"/><circle cx="1040" cy="520" r="1.4" fill="#1c1c20"/><circle cx="1080" cy="520" r="1.4" fill="#1c1c20"/><circle cx="1120" cy="520" r="1.4" fill="#1c1c20"/><circle cx="1160" cy="520" r="1.4" fill="#1c1c20"/><circle cx="40" cy="560" r="1.4" fill="#1c1c20"/><circle cx="80" cy="560" r="1.4" fill="#1c1c20"/><circle cx="120" cy="560" r="1.4" fill="#1c1c20"/><circle cx="160" cy="560" r="1.4" fill="#1c1c20"/><circle cx="200" cy="560" r="1.4" fill="#1c1c20"/><circle cx="240" cy="560" r="1.4" fill="#1c1c20"/><circle cx="280" cy="560" r="1.4" fill="#1c1c20"/><circle cx="320" cy="560" r="1.4" fill="#1c1c20"/><circle cx="360" cy="560" r="1.4" fill="#1c1c20"/><circle cx="400" cy="560" r="1.4" fill="#1c1c20"/><circle cx="440" cy="560" r="1.4" fill="#1c1c20"/><circle cx="480" cy="560" r="1.4" fill="#1c1c20"/><circle cx="520" cy="560" r="1.4" fill="#1c1c20"/><circle cx="560" cy="560" r="1.4" fill="#1c1c20"/><circle cx="600" cy="560" r="1.4" fill="#1c1c20"/><circle cx="640" cy="560" r="1.4" fill="#1c1c20"/><circle cx="680" cy="560" r="1.4" fill="#1c1c20"/><circle cx="720" cy="560" r="1.4" fill="#1c1c20"/><circle cx="760" cy="560" r="1.4" fill="#1c1c20"/><circle cx="800" cy="560" r="1.4" fill="#1c1c20"/><circle cx="840" cy="560" r="1.4" fill="#1c1c20"/><circle cx="880" cy="560" r="1.4" fill="#1c1c20"/><circle cx="920" cy="560" r="1.4" fill="#1c1c20"/><circle cx="960" cy="560" r="1.4" fill="#1c1c20"/><circle cx="1000" cy="560" r="1.4" fill="#1c1c20"/><circle cx="1040" cy="560" r="1.4" fill="#1c1c20"/><circle cx="1080" cy="560" r="1.4" fill="#1c1c20"/><circle cx="1120" cy="560" r="1.4" fill="#1c1c20"/><circle cx="1160" cy="560" r="1.4" fill="#1c1c20"/><circle cx="40" cy="600" r="1.4" fill="#1c1c20"/><circle cx="80" cy="600" r="1.4" fill="#1c1c20"/><circle cx="120" cy="600" r="1.4" fill="#1c1c20"/><circle cx="160" cy="600" r="1.4" fill="#1c1c20"/><circle cx="200" cy="600" r="1.4" fill="#1c1c20"/><circle cx="240" cy="600" r="1.4" fill="#1c1c20"/><circle cx="280" cy="600" r="1.4" fill="#1c1c20"/><circle cx="320" cy="600" r="1.4" fill="#1c1c20"/><circle cx="360" cy="600" r="1.4" fill="#1c1c20"/><circle cx="400" cy="600" r="1.4" fill="#1c1c20"/><circle cx="440" cy="600" r="1.4" fill="#1c1c20"/><circle cx="480" cy="600" r="1.4" fill="#1c1c20"/><circle cx="520" cy="600" r="1.4" fill="#1c1c20"/><circle cx="560" cy="600" r="1.4" fill="#1c1c20"/><circle cx="600" cy="600" r="1.4" fill="#1c1c20"/><circle cx="640" cy="600" r="1.4" fill="#1c1c20"/><circle cx="680" cy="600" r="1.4" fill="#1c1c20"/><circle cx="720" cy="600" r="1.4" fill="#1c1c20"/><circle cx="760" cy="600" r="1.4" fill="#1c1c20"/><circle cx="800" cy="600" r="1.4" fill="#1c1c20"/><circle cx="840" cy="600" r="1.4" fill="#1c1c20"/><circle cx="880" cy="600" r="1.4" fill="#1c1c20"/><circle cx="920" cy="600" r="1.4" fill="#1c1c20"/><circle cx="960" cy="600" r="1.4" fill="#1c1c20"/><circle cx="1000" cy="600" r="1.4" fill="#1c1c20"/><circle cx="1040" cy="600" r="1.4" fill="#1c1c20"/><circle cx="1080" cy="600" r="1.4" fill="#1c1c20"/><circle cx="1120" cy="600" r="1.4" fill="#1c1c20"/><circle cx="1160" cy="600" r="1.4" fill="#1c1c20"/>
<circle cx="537.7" cy="227.2" r="1.9" fill="#71717a" fill-opacity="0.32"/><circle cx="823.3" cy="193.8" r="2.1" fill="#71717a" fill-opacity="0.32"/><circle cx="520.8" cy="285.0" r="2.0" fill="#71717a" fill-opacity="0.42"/><circle cx="727.3" cy="239.2" r="1.6" fill="#71717a" fill-opacity="0.43"/><circle cx="582.3" cy="204.1" r="2.1" fill="#71717a" fill-opacity="0.31"/><circle cx="775.3" cy="240.2" r="1.9" fill="#71717a" fill-opacity="0.46"/><circle cx="622.3" cy="327.0" r="2.9" fill="#71717a" fill-opacity="0.55"/><circle cx="791.6" cy="332.6" r="2.4" fill="#71717a" fill-opacity="0.55"/><circle cx="966.2" cy="103.9" r="2.5" fill="#71717a" fill-opacity="0.42"/><circle cx="920.7" cy="146.0" r="2.9" fill="#71717a" fill-opacity="0.54"/><circle cx="877.6" cy="293.2" r="1.9" fill="#71717a" fill-opacity="0.33"/><circle cx="1073.0" cy="133.1" r="3.1" fill="#71717a" fill-opacity="0.48"/><circle cx="508.2" cy="74.8" r="2.3" fill="#71717a" fill-opacity="0.35"/><circle cx="923.2" cy="75.1" r="3.0" fill="#71717a" fill-opacity="0.45"/><circle cx="910.7" cy="313.5" r="2.9" fill="#71717a" fill-opacity="0.29"/><circle cx="958.8" cy="346.1" r="2.9" fill="#71717a" fill-opacity="0.59"/><circle cx="980.7" cy="74.1" r="2.4" fill="#71717a" fill-opacity="0.53"/><circle cx="600.5" cy="149.2" r="1.9" fill="#71717a" fill-opacity="0.56"/><circle cx="1021.8" cy="277.3" r="3.3" fill="#71717a" fill-opacity="0.57"/><circle cx="627.7" cy="367.2" r="2.1" fill="#71717a" fill-opacity="0.36"/><circle cx="791.0" cy="94.7" r="3.3" fill="#71717a" fill-opacity="0.27"/><circle cx="490.9" cy="298.0" r="2.2" fill="#71717a" fill-opacity="0.29"/><circle cx="468.1" cy="322.0" r="3.0" fill="#71717a" fill-opacity="0.44"/><circle cx="763.9" cy="130.5" r="3.3" fill="#71717a" fill-opacity="0.27"/><circle cx="594.0" cy="82.9" r="3.2" fill="#71717a" fill-opacity="0.43"/><circle cx="427.2" cy="182.7" r="3.2" fill="#71717a" fill-opacity="0.31"/><circle cx="520.9" cy="213.0" r="2.1" fill="#71717a" fill-opacity="0.43"/><circle cx="1047.0" cy="194.1" r="2.2" fill="#71717a" fill-opacity="0.30"/><circle cx="772.0" cy="190.9" r="2.7" fill="#71717a" fill-opacity="0.36"/><circle cx="1020.9" cy="151.8" r="2.7" fill="#71717a" fill-opacity="0.55"/><circle cx="654.8" cy="384.3" r="3.1" fill="#71717a" fill-opacity="0.36"/><circle cx="977.2" cy="224.8" r="2.8" fill="#71717a" fill-opacity="0.49"/><circle cx="458.6" cy="68.3" r="2.3" fill="#71717a" fill-opacity="0.54"/><circle cx="952.6" cy="177.1" r="1.6" fill="#71717a" fill-opacity="0.33"/><circle cx="649.9" cy="283.7" r="3.3" fill="#71717a" fill-opacity="0.51"/><circle cx="736.8" cy="311.2" r="3.4" fill="#71717a" fill-opacity="0.34"/><circle cx="856.3" cy="368.9" r="2.4" fill="#71717a" fill-opacity="0.52"/><circle cx="407.2" cy="132.1" r="1.6" fill="#71717a" fill-opacity="0.39"/><circle cx="1088.7" cy="310.4" r="3.1" fill="#71717a" fill-opacity="0.55"/><circle cx="1071.8" cy="170.0" r="1.8" fill="#71717a" fill-opacity="0.59"/><circle cx="933.4" cy="398.4" r="2.7" fill="#71717a" fill-opacity="0.32"/><circle cx="467.0" cy="190.1" r="2.2" fill="#71717a" fill-opacity="0.36"/><circle cx="534.7" cy="87.8" r="2.7" fill="#71717a" fill-opacity="0.41"/><circle cx="493.8" cy="333.6" r="2.5" fill="#71717a" fill-opacity="0.40"/><circle cx="939.0" cy="255.6" r="2.9" fill="#71717a" fill-opacity="0.34"/><circle cx="622.1" cy="336.7" r="2.3" fill="#71717a" fill-opacity="0.28"/><circle cx="1098.7" cy="219.1" r="2.1" fill="#71717a" fill-opacity="0.32"/><circle cx="465.6" cy="60.1" r="2.8" fill="#71717a" fill-opacity="0.49"/><circle cx="398.6" cy="314.8" r="1.6" fill="#71717a" fill-opacity="0.28"/><circle cx="958.4" cy="291.0" r="1.9" fill="#71717a" fill-opacity="0.29"/><circle cx="552.4" cy="339.4" r="3.2" fill="#71717a" fill-opacity="0.39"/><circle cx="736.0" cy="109.8" r="3.2" fill="#71717a" fill-opacity="0.29"/><circle cx="500.2" cy="376.2" r="3.2" fill="#71717a" fill-opacity="0.55"/><circle cx="573.5" cy="84.7" r="2.8" fill="#71717a" fill-opacity="0.44"/><circle cx="916.1" cy="163.2" r="2.9" fill="#71717a" fill-opacity="0.57"/><circle cx="1104.8" cy="139.5" r="3.2" fill="#71717a" fill-opacity="0.45"/><circle cx="675.6" cy="298.9" r="2.2" fill="#71717a" fill-opacity="0.33"/><circle cx="896.9" cy="206.8" r="2.8" fill="#71717a" fill-opacity="0.42"/><circle cx="548.1" cy="307.8" r="2.4" fill="#71717a" fill-opacity="0.49"/><circle cx="943.0" cy="256.3" r="3.5" fill="#22c55e" fill-opacity="0.8"/><circle cx="989.2" cy="190.7" r="2.9" fill="#22c55e" fill-opacity="0.8"/><circle cx="981.3" cy="213.4" r="3.3" fill="#22c55e" fill-opacity="0.8"/><circle cx="955.6" cy="207.4" r="3.7" fill="#22c55e" fill-opacity="0.8"/><circle cx="989.6" cy="210.7" r="2.5" fill="#22c55e" fill-opacity="0.8"/><circle cx="947.2" cy="193.1" r="2.7" fill="#22c55e" fill-opacity="0.8"/><circle cx="991.6" cy="245.9" r="2.3" fill="#22c55e" fill-opacity="0.8"/><circle cx="954.8" cy="248.9" r="2.6" fill="#22c55e" fill-opacity="0.8"/><circle cx="962.5" cy="223.2" r="11" fill="#22c55e" filter="url(#glow)"/><circle cx="962.5" cy="223.2" r="40" fill="none" stroke="#22c55e" stroke-width="1.3" stroke-opacity="0.35" stroke-dasharray="3 5"/>


<text x="64" y="596" font-family="'JetBrains Mono', ui-monospace, monospace" font-size="16" letter-spacing="1" fill="#71717a">supergood<tspan fill="#22c55e">.</tspan>solutions</text>
</svg>