<svg xmlns="http://www.w3.org/2000/svg" width="1200" height="630" viewBox="0 0 1200 630">
<defs>
  <filter id="glow" x="-60%" y="-60%" width="220%" height="220%">
    <feGaussianBlur stdDeviation="7" result="b"/>
    <feMerge><feMergeNode in="b"/><feMergeNode in="SourceGraphic"/></feMerge>
  </filter>
  <linearGradient id="vig" x1="0" y1="0" x2="0" y2="1">
    <stop offset="0%" stop-color="#0a0a0b" stop-opacity="0"/>
    <stop offset="100%" stop-color="#0a0a0b" stop-opacity="0.85"/>
  </linearGradient>
</defs>
<rect width="1200" height="630" fill="#0a0a0b"/>
<circle cx="40" cy="40" r="1.4" fill="#1c1c20"/><circle cx="80" cy="40" r="1.4" fill="#1c1c20"/><circle cx="120" cy="40" r="1.4" fill="#1c1c20"/><circle cx="160" cy="40" r="1.4" fill="#1c1c20"/><circle cx="200" cy="40" r="1.4" fill="#1c1c20"/><circle cx="240" cy="40" r="1.4" fill="#1c1c20"/><circle cx="280" cy="40" r="1.4" fill="#1c1c20"/><circle cx="320" cy="40" r="1.4" fill="#1c1c20"/><circle cx="360" cy="40" r="1.4" fill="#1c1c20"/><circle cx="400" cy="40" r="1.4" fill="#1c1c20"/><circle cx="440" cy="40" r="1.4" fill="#1c1c20"/><circle cx="480" cy="40" r="1.4" fill="#1c1c20"/><circle cx="520" cy="40" r="1.4" fill="#1c1c20"/><circle cx="560" cy="40" r="1.4" fill="#1c1c20"/><circle cx="600" cy="40" r="1.4" fill="#1c1c20"/><circle cx="640" cy="40" r="1.4" fill="#1c1c20"/><circle cx="680" cy="40" r="1.4" fill="#1c1c20"/><circle cx="720" cy="40" r="1.4" fill="#1c1c20"/><circle cx="760" cy="40" r="1.4" fill="#1c1c20"/><circle cx="800" cy="40" r="1.4" fill="#1c1c20"/><circle cx="840" cy="40" r="1.4" fill="#1c1c20"/><circle cx="880" cy="40" r="1.4" fill="#1c1c20"/><circle cx="920" cy="40" r="1.4" fill="#1c1c20"/><circle cx="960" cy="40" r="1.4" fill="#1c1c20"/><circle cx="1000" cy="40" r="1.4" fill="#1c1c20"/><circle cx="1040" cy="40" r="1.4" fill="#1c1c20"/><circle cx="1080" cy="40" r="1.4" fill="#1c1c20"/><circle cx="1120" cy="40" r="1.4" fill="#1c1c20"/><circle cx="1160" cy="40" r="1.4" fill="#1c1c20"/><circle cx="40" cy="80" r="1.4" fill="#1c1c20"/><circle cx="80" cy="80" r="1.4" fill="#1c1c20"/><circle cx="120" cy="80" r="1.4" fill="#1c1c20"/><circle cx="160" cy="80" r="1.4" fill="#1c1c20"/><circle cx="200" cy="80" r="1.4" fill="#1c1c20"/><circle cx="240" cy="80" r="1.4" fill="#1c1c20"/><circle cx="280" cy="80" r="1.4" fill="#1c1c20"/><circle cx="320" cy="80" r="1.4" fill="#1c1c20"/><circle cx="360" cy="80" r="1.4" fill="#1c1c20"/><circle cx="400" cy="80" r="1.4" fill="#1c1c20"/><circle cx="440" cy="80" r="1.4" fill="#1c1c20"/><circle cx="480" cy="80" r="1.4" fill="#1c1c20"/><circle cx="520" cy="80" r="1.4" fill="#1c1c20"/><circle cx="560" cy="80" r="1.4" fill="#1c1c20"/><circle cx="600" cy="80" r="1.4" fill="#1c1c20"/><circle cx="640" cy="80" r="1.4" fill="#1c1c20"/><circle cx="680" cy="80" r="1.4" fill="#1c1c20"/><circle cx="720" cy="80" r="1.4" fill="#1c1c20"/><circle cx="760" cy="80" r="1.4" fill="#1c1c20"/><circle cx="800" cy="80" r="1.4" fill="#1c1c20"/><circle cx="840" cy="80" r="1.4" fill="#1c1c20"/><circle cx="880" cy="80" r="1.4" fill="#1c1c20"/><circle cx="920" cy="80" r="1.4" fill="#1c1c20"/><circle cx="960" cy="80" r="1.4" fill="#1c1c20"/><circle cx="1000" cy="80" r="1.4" fill="#1c1c20"/><circle cx="1040" cy="80" r="1.4" fill="#1c1c20"/><circle cx="1080" cy="80" r="1.4" fill="#1c1c20"/><circle cx="1120" cy="80" r="1.4" fill="#1c1c20"/><circle cx="1160" cy="80" r="1.4" fill="#1c1c20"/><circle cx="40" cy="120" r="1.4" fill="#1c1c20"/><circle cx="80" cy="120" r="1.4" fill="#1c1c20"/><circle cx="120" cy="120" r="1.4" fill="#1c1c20"/><circle cx="160" cy="120" r="1.4" fill="#1c1c20"/><circle cx="200" cy="120" r="1.4" fill="#1c1c20"/><circle cx="240" cy="120" r="1.4" fill="#1c1c20"/><circle cx="280" cy="120" r="1.4" fill="#1c1c20"/><circle cx="320" cy="120" r="1.4" fill="#1c1c20"/><circle cx="360" cy="120" r="1.4" fill="#1c1c20"/><circle cx="400" cy="120" r="1.4" fill="#1c1c20"/><circle cx="440" cy="120" r="1.4" fill="#1c1c20"/><circle cx="480" cy="120" r="1.4" fill="#1c1c20"/><circle cx="520" cy="120" r="1.4" fill="#1c1c20"/><circle cx="560" cy="120" r="1.4" fill="#1c1c20"/><circle cx="600" cy="120" r="1.4" fill="#1c1c20"/><circle cx="640" cy="120" r="1.4" fill="#1c1c20"/><circle cx="680" cy="120" r="1.4" fill="#1c1c20"/><circle cx="720" cy="120" r="1.4" fill="#1c1c20"/><circle cx="760" cy="120" r="1.4" fill="#1c1c20"/><circle cx="800" cy="120" r="1.4" fill="#1c1c20"/><circle cx="840" cy="120" r="1.4" fill="#1c1c20"/><circle cx="880" cy="120" r="1.4" fill="#1c1c20"/><circle cx="920" cy="120" r="1.4" fill="#1c1c20"/><circle cx="960" cy="120" r="1.4" fill="#1c1c20"/><circle cx="1000" cy="120" r="1.4" fill="#1c1c20"/><circle cx="1040" cy="120" r="1.4" fill="#1c1c20"/><circle cx="1080" cy="120" r="1.4" fill="#1c1c20"/><circle cx="1120" cy="120" r="1.4" fill="#1c1c20"/><circle cx="1160" cy="120" r="1.4" fill="#1c1c20"/><circle cx="40" cy="160" r="1.4" fill="#1c1c20"/><circle cx="80" cy="160" r="1.4" fill="#1c1c20"/><circle cx="120" cy="160" r="1.4" fill="#1c1c20"/><circle cx="160" cy="160" r="1.4" fill="#1c1c20"/><circle cx="200" cy="160" r="1.4" fill="#1c1c20"/><circle cx="240" cy="160" r="1.4" fill="#1c1c20"/><circle cx="280" cy="160" r="1.4" fill="#1c1c20"/><circle cx="320" cy="160" r="1.4" fill="#1c1c20"/><circle cx="360" cy="160" r="1.4" fill="#1c1c20"/><circle cx="400" cy="160" r="1.4" fill="#1c1c20"/><circle cx="440" cy="160" r="1.4" fill="#1c1c20"/><circle cx="480" cy="160" r="1.4" fill="#1c1c20"/><circle cx="520" cy="160" r="1.4" fill="#1c1c20"/><circle cx="560" cy="160" r="1.4" fill="#1c1c20"/><circle cx="600" cy="160" r="1.4" fill="#1c1c20"/><circle cx="640" cy="160" r="1.4" fill="#1c1c20"/><circle cx="680" cy="160" r="1.4" fill="#1c1c20"/><circle cx="720" cy="160" r="1.4" fill="#1c1c20"/><circle cx="760" cy="160" r="1.4" fill="#1c1c20"/><circle cx="800" cy="160" r="1.4" fill="#1c1c20"/><circle cx="840" cy="160" r="1.4" fill="#1c1c20"/><circle cx="880" cy="160" r="1.4" fill="#1c1c20"/><circle cx="920" cy="160" r="1.4" fill="#1c1c20"/><circle cx="960" cy="160" r="1.4" fill="#1c1c20"/><circle cx="1000" cy="160" r="1.4" fill="#1c1c20"/><circle cx="1040" cy="160" r="1.4" fill="#1c1c20"/><circle cx="1080" cy="160" r="1.4" fill="#1c1c20"/><circle cx="1120" cy="160" r="1.4" fill="#1c1c20"/><circle cx="1160" cy="160" r="1.4" fill="#1c1c20"/><circle cx="40" cy="200" r="1.4" fill="#1c1c20"/><circle cx="80" cy="200" r="1.4" fill="#1c1c20"/><circle cx="120" cy="200" r="1.4" fill="#1c1c20"/><circle cx="160" cy="200" r="1.4" fill="#1c1c20"/><circle cx="200" cy="200" r="1.4" fill="#1c1c20"/><circle cx="240" cy="200" r="1.4" fill="#1c1c20"/><circle cx="280" cy="200" r="1.4" fill="#1c1c20"/><circle cx="320" cy="200" r="1.4" fill="#1c1c20"/><circle cx="360" cy="200" r="1.4" fill="#1c1c20"/><circle cx="400" cy="200" r="1.4" fill="#1c1c20"/><circle cx="440" cy="200" r="1.4" fill="#1c1c20"/><circle cx="480" cy="200" r="1.4" fill="#1c1c20"/><circle cx="520" cy="200" r="1.4" fill="#1c1c20"/><circle cx="560" cy="200" r="1.4" fill="#1c1c20"/><circle cx="600" cy="200" r="1.4" fill="#1c1c20"/><circle cx="640" cy="200" r="1.4" fill="#1c1c20"/><circle cx="680" cy="200" r="1.4" fill="#1c1c20"/><circle cx="720" cy="200" r="1.4" fill="#1c1c20"/><circle cx="760" cy="200" r="1.4" fill="#1c1c20"/><circle cx="800" cy="200" r="1.4" fill="#1c1c20"/><circle cx="840" cy="200" r="1.4" fill="#1c1c20"/><circle cx="880" cy="200" r="1.4" fill="#1c1c20"/><circle cx="920" cy="200" r="1.4" fill="#1c1c20"/><circle cx="960" cy="200" r="1.4" fill="#1c1c20"/><circle cx="1000" cy="200" r="1.4" fill="#1c1c20"/><circle cx="1040" cy="200" r="1.4" fill="#1c1c20"/><circle cx="1080" cy="200" r="1.4" fill="#1c1c20"/><circle cx="1120" cy="200" r="1.4" fill="#1c1c20"/><circle cx="1160" cy="200" r="1.4" fill="#1c1c20"/><circle cx="40" cy="240" r="1.4" fill="#1c1c20"/><circle cx="80" cy="240" r="1.4" fill="#1c1c20"/><circle cx="120" cy="240" r="1.4" fill="#1c1c20"/><circle cx="160" cy="240" r="1.4" fill="#1c1c20"/><circle cx="200" cy="240" r="1.4" fill="#1c1c20"/><circle cx="240" cy="240" r="1.4" fill="#1c1c20"/><circle cx="280" cy="240" r="1.4" fill="#1c1c20"/><circle cx="320" cy="240" r="1.4" fill="#1c1c20"/><circle cx="360" cy="240" r="1.4" fill="#1c1c20"/><circle cx="400" cy="240" r="1.4" fill="#1c1c20"/><circle cx="440" cy="240" r="1.4" fill="#1c1c20"/><circle cx="480" cy="240" r="1.4" fill="#1c1c20"/><circle cx="520" cy="240" r="1.4" fill="#1c1c20"/><circle cx="560" cy="240" r="1.4" fill="#1c1c20"/><circle cx="600" cy="240" r="1.4" fill="#1c1c20"/><circle cx="640" cy="240" r="1.4" fill="#1c1c20"/><circle cx="680" cy="240" r="1.4" fill="#1c1c20"/><circle cx="720" cy="240" r="1.4" fill="#1c1c20"/><circle cx="760" cy="240" r="1.4" fill="#1c1c20"/><circle cx="800" cy="240" r="1.4" fill="#1c1c20"/><circle cx="840" cy="240" r="1.4" fill="#1c1c20"/><circle cx="880" cy="240" r="1.4" fill="#1c1c20"/><circle cx="920" cy="240" r="1.4" fill="#1c1c20"/><circle cx="960" cy="240" r="1.4" fill="#1c1c20"/><circle cx="1000" cy="240" r="1.4" fill="#1c1c20"/><circle cx="1040" cy="240" r="1.4" fill="#1c1c20"/><circle cx="1080" cy="240" r="1.4" fill="#1c1c20"/><circle cx="1120" cy="240" r="1.4" fill="#1c1c20"/><circle cx="1160" cy="240" r="1.4" fill="#1c1c20"/><circle cx="40" cy="280" r="1.4" fill="#1c1c20"/><circle cx="80" cy="280" r="1.4" fill="#1c1c20"/><circle cx="120" cy="280" r="1.4" fill="#1c1c20"/><circle cx="160" cy="280" r="1.4" fill="#1c1c20"/><circle cx="200" cy="280" r="1.4" fill="#1c1c20"/><circle cx="240" cy="280" r="1.4" fill="#1c1c20"/><circle cx="280" cy="280" r="1.4" fill="#1c1c20"/><circle cx="320" cy="280" r="1.4" fill="#1c1c20"/><circle cx="360" cy="280" r="1.4" fill="#1c1c20"/><circle cx="400" cy="280" r="1.4" fill="#1c1c20"/><circle cx="440" cy="280" r="1.4" fill="#1c1c20"/><circle cx="480" cy="280" r="1.4" fill="#1c1c20"/><circle cx="520" cy="280" r="1.4" fill="#1c1c20"/><circle cx="560" cy="280" r="1.4" fill="#1c1c20"/><circle cx="600" cy="280" r="1.4" fill="#1c1c20"/><circle cx="640" cy="280" r="1.4" fill="#1c1c20"/><circle cx="680" cy="280" r="1.4" fill="#1c1c20"/><circle cx="720" cy="280" r="1.4" fill="#1c1c20"/><circle cx="760" cy="280" r="1.4" fill="#1c1c20"/><circle cx="800" cy="280" r="1.4" fill="#1c1c20"/><circle cx="840" cy="280" r="1.4" fill="#1c1c20"/><circle cx="880" cy="280" r="1.4" fill="#1c1c20"/><circle cx="920" cy="280" r="1.4" fill="#1c1c20"/><circle cx="960" cy="280" r="1.4" fill="#1c1c20"/><circle cx="1000" cy="280" r="1.4" fill="#1c1c20"/><circle cx="1040" cy="280" r="1.4" fill="#1c1c20"/><circle cx="1080" cy="280" r="1.4" fill="#1c1c20"/><circle cx="1120" cy="280" r="1.4" fill="#1c1c20"/><circle cx="1160" cy="280" r="1.4" fill="#1c1c20"/><circle cx="40" cy="320" r="1.4" fill="#1c1c20"/><circle cx="80" cy="320" r="1.4" fill="#1c1c20"/><circle cx="120" cy="320" r="1.4" fill="#1c1c20"/><circle cx="160" cy="320" r="1.4" fill="#1c1c20"/><circle cx="200" cy="320" r="1.4" fill="#1c1c20"/><circle cx="240" cy="320" r="1.4" fill="#1c1c20"/><circle cx="280" cy="320" r="1.4" fill="#1c1c20"/><circle cx="320" cy="320" r="1.4" fill="#1c1c20"/><circle cx="360" cy="320" r="1.4" fill="#1c1c20"/><circle cx="400" cy="320" r="1.4" fill="#1c1c20"/><circle cx="440" cy="320" r="1.4" fill="#1c1c20"/><circle cx="480" cy="320" r="1.4" fill="#1c1c20"/><circle cx="520" cy="320" r="1.4" fill="#1c1c20"/><circle cx="560" cy="320" r="1.4" fill="#1c1c20"/><circle cx="600" cy="320" r="1.4" fill="#1c1c20"/><circle cx="640" cy="320" r="1.4" fill="#1c1c20"/><circle cx="680" cy="320" r="1.4" fill="#1c1c20"/><circle cx="720" cy="320" r="1.4" fill="#1c1c20"/><circle cx="760" cy="320" r="1.4" fill="#1c1c20"/><circle cx="800" cy="320" r="1.4" fill="#1c1c20"/><circle cx="840" cy="320" r="1.4" fill="#1c1c20"/><circle cx="880" cy="320" r="1.4" fill="#1c1c20"/><circle cx="920" cy="320" r="1.4" fill="#1c1c20"/><circle cx="960" cy="320" r="1.4" fill="#1c1c20"/><circle cx="1000" cy="320" r="1.4" fill="#1c1c20"/><circle cx="1040" cy="320" r="1.4" fill="#1c1c20"/><circle cx="1080" cy="320" r="1.4" fill="#1c1c20"/><circle cx="1120" cy="320" r="1.4" fill="#1c1c20"/><circle cx="1160" cy="320" r="1.4" fill="#1c1c20"/><circle cx="40" cy="360" r="1.4" fill="#1c1c20"/><circle cx="80" cy="360" r="1.4" fill="#1c1c20"/><circle cx="120" cy="360" r="1.4" fill="#1c1c20"/><circle cx="160" cy="360" r="1.4" fill="#1c1c20"/><circle cx="200" cy="360" r="1.4" fill="#1c1c20"/><circle cx="240" cy="360" r="1.4" fill="#1c1c20"/><circle cx="280" cy="360" r="1.4" fill="#1c1c20"/><circle cx="320" cy="360" r="1.4" fill="#1c1c20"/><circle cx="360" cy="360" r="1.4" fill="#1c1c20"/><circle cx="400" cy="360" r="1.4" fill="#1c1c20"/><circle cx="440" cy="360" r="1.4" fill="#1c1c20"/><circle cx="480" cy="360" r="1.4" fill="#1c1c20"/><circle cx="520" cy="360" r="1.4" fill="#1c1c20"/><circle cx="560" cy="360" r="1.4" fill="#1c1c20"/><circle cx="600" cy="360" r="1.4" fill="#1c1c20"/><circle cx="640" cy="360" r="1.4" fill="#1c1c20"/><circle cx="680" cy="360" r="1.4" fill="#1c1c20"/><circle cx="720" cy="360" r="1.4" fill="#1c1c20"/><circle cx="760" cy="360" r="1.4" fill="#1c1c20"/><circle cx="800" cy="360" r="1.4" fill="#1c1c20"/><circle cx="840" cy="360" r="1.4" fill="#1c1c20"/><circle cx="880" cy="360" r="1.4" fill="#1c1c20"/><circle cx="920" cy="360" r="1.4" fill="#1c1c20"/><circle cx="960" cy="360" r="1.4" fill="#1c1c20"/><circle cx="1000" cy="360" r="1.4" fill="#1c1c20"/><circle cx="1040" cy="360" r="1.4" fill="#1c1c20"/><circle cx="1080" cy="360" r="1.4" fill="#1c1c20"/><circle cx="1120" cy="360" r="1.4" fill="#1c1c20"/><circle cx="1160" cy="360" r="1.4" fill="#1c1c20"/><circle cx="40" cy="400" r="1.4" fill="#1c1c20"/><circle cx="80" cy="400" r="1.4" fill="#1c1c20"/><circle cx="120" cy="400" r="1.4" fill="#1c1c20"/><circle cx="160" cy="400" r="1.4" fill="#1c1c20"/><circle cx="200" cy="400" r="1.4" fill="#1c1c20"/><circle cx="240" cy="400" r="1.4" fill="#1c1c20"/><circle cx="280" cy="400" r="1.4" fill="#1c1c20"/><circle cx="320" cy="400" r="1.4" fill="#1c1c20"/><circle cx="360" cy="400" r="1.4" fill="#1c1c20"/><circle cx="400" cy="400" r="1.4" fill="#1c1c20"/><circle cx="440" cy="400" r="1.4" fill="#1c1c20"/><circle cx="480" cy="400" r="1.4" fill="#1c1c20"/><circle cx="520" cy="400" r="1.4" fill="#1c1c20"/><circle cx="560" cy="400" r="1.4" fill="#1c1c20"/><circle cx="600" cy="400" r="1.4" fill="#1c1c20"/><circle cx="640" cy="400" r="1.4" fill="#1c1c20"/><circle cx="680" cy="400" r="1.4" fill="#1c1c20"/><circle cx="720" cy="400" r="1.4" fill="#1c1c20"/><circle cx="760" cy="400" r="1.4" fill="#1c1c20"/><circle cx="800" cy="400" r="1.4" fill="#1c1c20"/><circle cx="840" cy="400" r="1.4" fill="#1c1c20"/><circle cx="880" cy="400" r="1.4" fill="#1c1c20"/><circle cx="920" cy="400" r="1.4" fill="#1c1c20"/><circle cx="960" cy="400" r="1.4" fill="#1c1c20"/><circle cx="1000" cy="400" r="1.4" fill="#1c1c20"/><circle cx="1040" cy="400" r="1.4" fill="#1c1c20"/><circle cx="1080" cy="400" r="1.4" fill="#1c1c20"/><circle cx="1120" cy="400" r="1.4" fill="#1c1c20"/><circle cx="1160" cy="400" r="1.4" fill="#1c1c20"/><circle cx="40" cy="440" r="1.4" fill="#1c1c20"/><circle cx="80" cy="440" r="1.4" fill="#1c1c20"/><circle cx="120" cy="440" r="1.4" fill="#1c1c20"/><circle cx="160" cy="440" r="1.4" fill="#1c1c20"/><circle cx="200" cy="440" r="1.4" fill="#1c1c20"/><circle cx="240" cy="440" r="1.4" fill="#1c1c20"/><circle cx="280" cy="440" r="1.4" fill="#1c1c20"/><circle cx="320" cy="440" r="1.4" fill="#1c1c20"/><circle cx="360" cy="440" r="1.4" fill="#1c1c20"/><circle cx="400" cy="440" r="1.4" fill="#1c1c20"/><circle cx="440" cy="440" r="1.4" fill="#1c1c20"/><circle cx="480" cy="440" r="1.4" fill="#1c1c20"/><circle cx="520" cy="440" r="1.4" fill="#1c1c20"/><circle cx="560" cy="440" r="1.4" fill="#1c1c20"/><circle cx="600" cy="440" r="1.4" fill="#1c1c20"/><circle cx="640" cy="440" r="1.4" fill="#1c1c20"/><circle cx="680" cy="440" r="1.4" fill="#1c1c20"/><circle cx="720" cy="440" r="1.4" fill="#1c1c20"/><circle cx="760" cy="440" r="1.4" fill="#1c1c20"/><circle cx="800" cy="440" r="1.4" fill="#1c1c20"/><circle cx="840" cy="440" r="1.4" fill="#1c1c20"/><circle cx="880" cy="440" r="1.4" fill="#1c1c20"/><circle cx="920" cy="440" r="1.4" fill="#1c1c20"/><circle cx="960" cy="440" r="1.4" fill="#1c1c20"/><circle cx="1000" cy="440" r="1.4" fill="#1c1c20"/><circle cx="1040" cy="440" r="1.4" fill="#1c1c20"/><circle cx="1080" cy="440" r="1.4" fill="#1c1c20"/><circle cx="1120" cy="440" r="1.4" fill="#1c1c20"/><circle cx="1160" cy="440" r="1.4" fill="#1c1c20"/><circle cx="40" cy="480" r="1.4" fill="#1c1c20"/><circle cx="80" cy="480" r="1.4" fill="#1c1c20"/><circle cx="120" cy="480" r="1.4" fill="#1c1c20"/><circle cx="160" cy="480" r="1.4" fill="#1c1c20"/><circle cx="200" cy="480" r="1.4" fill="#1c1c20"/><circle cx="240" cy="480" r="1.4" fill="#1c1c20"/><circle cx="280" cy="480" r="1.4" fill="#1c1c20"/><circle cx="320" cy="480" r="1.4" fill="#1c1c20"/><circle cx="360" cy="480" r="1.4" fill="#1c1c20"/><circle cx="400" cy="480" r="1.4" fill="#1c1c20"/><circle cx="440" cy="480" r="1.4" fill="#1c1c20"/><circle cx="480" cy="480" r="1.4" fill="#1c1c20"/><circle cx="520" cy="480" r="1.4" fill="#1c1c20"/><circle cx="560" cy="480" r="1.4" fill="#1c1c20"/><circle cx="600" cy="480" r="1.4" fill="#1c1c20"/><circle cx="640" cy="480" r="1.4" fill="#1c1c20"/><circle cx="680" cy="480" r="1.4" fill="#1c1c20"/><circle cx="720" cy="480" r="1.4" fill="#1c1c20"/><circle cx="760" cy="480" r="1.4" fill="#1c1c20"/><circle cx="800" cy="480" r="1.4" fill="#1c1c20"/><circle cx="840" cy="480" r="1.4" fill="#1c1c20"/><circle cx="880" cy="480" r="1.4" fill="#1c1c20"/><circle cx="920" cy="480" r="1.4" fill="#1c1c20"/><circle cx="960" cy="480" r="1.4" fill="#1c1c20"/><circle cx="1000" cy="480" r="1.4" fill="#1c1c20"/><circle cx="1040" cy="480" r="1.4" fill="#1c1c20"/><circle cx="1080" cy="480" r="1.4" fill="#1c1c20"/><circle cx="1120" cy="480" r="1.4" fill="#1c1c20"/><circle cx="1160" cy="480" r="1.4" fill="#1c1c20"/><circle cx="40" cy="520" r="1.4" fill="#1c1c20"/><circle cx="80" cy="520" r="1.4" fill="#1c1c20"/><circle cx="120" cy="520" r="1.4" fill="#1c1c20"/><circle cx="160" cy="520" r="1.4" fill="#1c1c20"/><circle cx="200" cy="520" r="1.4" fill="#1c1c20"/><circle cx="240" cy="520" r="1.4" fill="#1c1c20"/><circle cx="280" cy="520" r="1.4" fill="#1c1c20"/><circle cx="320" cy="520" r="1.4" fill="#1c1c20"/><circle cx="360" cy="520" r="1.4" fill="#1c1c20"/><circle cx="400" cy="520" r="1.4" fill="#1c1c20"/><circle cx="440" cy="520" r="1.4" fill="#1c1c20"/><circle cx="480" cy="520" r="1.4" fill="#1c1c20"/><circle cx="520" cy="520" r="1.4" fill="#1c1c20"/><circle cx="560" cy="520" r="1.4" fill="#1c1c20"/><circle cx="600" cy="520" r="1.4" fill="#1c1c20"/><circle cx="640" cy="520" r="1.4" fill="#1c1c20"/><circle cx="680" cy="520" r="1.4" fill="#1c1c20"/><circle cx="720" cy="520" r="1.4" fill="#1c1c20"/><circle cx="760" cy="520" r="1.4" fill="#1c1c20"/><circle cx="800" cy="520" r="1.4" fill="#1c1c20"/><circle cx="840" cy="520" r="1.4" fill="#1c1c20"/><circle cx="880" cy="520" r="1.4" fill="#1c1c20"/><circle cx="920" cy="520" r="1.4" fill="#1c1c20"/><circle cx="960" cy="520" r="1.4" fill="#1c1c20"/><circle cx="1000" cy="520" r="1.4" fill="#1c1c20"/><circle cx="1040" cy="520" r="1.4" fill="#1c1c20"/><circle cx="1080" cy="520" r="1.4" fill="#1c1c20"/><circle cx="1120" cy="520" r="1.4" fill="#1c1c20"/><circle cx="1160" cy="520" r="1.4" fill="#1c1c20"/><circle cx="40" cy="560" r="1.4" fill="#1c1c20"/><circle cx="80" cy="560" r="1.4" fill="#1c1c20"/><circle cx="120" cy="560" r="1.4" fill="#1c1c20"/><circle cx="160" cy="560" r="1.4" fill="#1c1c20"/><circle cx="200" cy="560" r="1.4" fill="#1c1c20"/><circle cx="240" cy="560" r="1.4" fill="#1c1c20"/><circle cx="280" cy="560" r="1.4" fill="#1c1c20"/><circle cx="320" cy="560" r="1.4" fill="#1c1c20"/><circle cx="360" cy="560" r="1.4" fill="#1c1c20"/><circle cx="400" cy="560" r="1.4" fill="#1c1c20"/><circle cx="440" cy="560" r="1.4" fill="#1c1c20"/><circle cx="480" cy="560" r="1.4" fill="#1c1c20"/><circle cx="520" cy="560" r="1.4" fill="#1c1c20"/><circle cx="560" cy="560" r="1.4" fill="#1c1c20"/><circle cx="600" cy="560" r="1.4" fill="#1c1c20"/><circle cx="640" cy="560" r="1.4" fill="#1c1c20"/><circle cx="680" cy="560" r="1.4" fill="#1c1c20"/><circle cx="720" cy="560" r="1.4" fill="#1c1c20"/><circle cx="760" cy="560" r="1.4" fill="#1c1c20"/><circle cx="800" cy="560" r="1.4" fill="#1c1c20"/><circle cx="840" cy="560" r="1.4" fill="#1c1c20"/><circle cx="880" cy="560" r="1.4" fill="#1c1c20"/><circle cx="920" cy="560" r="1.4" fill="#1c1c20"/><circle cx="960" cy="560" r="1.4" fill="#1c1c20"/><circle cx="1000" cy="560" r="1.4" fill="#1c1c20"/><circle cx="1040" cy="560" r="1.4" fill="#1c1c20"/><circle cx="1080" cy="560" r="1.4" fill="#1c1c20"/><circle cx="1120" cy="560" r="1.4" fill="#1c1c20"/><circle cx="1160" cy="560" r="1.4" fill="#1c1c20"/><circle cx="40" cy="600" r="1.4" fill="#1c1c20"/><circle cx="80" cy="600" r="1.4" fill="#1c1c20"/><circle cx="120" cy="600" r="1.4" fill="#1c1c20"/><circle cx="160" cy="600" r="1.4" fill="#1c1c20"/><circle cx="200" cy="600" r="1.4" fill="#1c1c20"/><circle cx="240" cy="600" r="1.4" fill="#1c1c20"/><circle cx="280" cy="600" r="1.4" fill="#1c1c20"/><circle cx="320" cy="600" r="1.4" fill="#1c1c20"/><circle cx="360" cy="600" r="1.4" fill="#1c1c20"/><circle cx="400" cy="600" r="1.4" fill="#1c1c20"/><circle cx="440" cy="600" r="1.4" fill="#1c1c20"/><circle cx="480" cy="600" r="1.4" fill="#1c1c20"/><circle cx="520" cy="600" r="1.4" fill="#1c1c20"/><circle cx="560" cy="600" r="1.4" fill="#1c1c20"/><circle cx="600" cy="600" r="1.4" fill="#1c1c20"/><circle cx="640" cy="600" r="1.4" fill="#1c1c20"/><circle cx="680" cy="600" r="1.4" fill="#1c1c20"/><circle cx="720" cy="600" r="1.4" fill="#1c1c20"/><circle cx="760" cy="600" r="1.4" fill="#1c1c20"/><circle cx="800" cy="600" r="1.4" fill="#1c1c20"/><circle cx="840" cy="600" r="1.4" fill="#1c1c20"/><circle cx="880" cy="600" r="1.4" fill="#1c1c20"/><circle cx="920" cy="600" r="1.4" fill="#1c1c20"/><circle cx="960" cy="600" r="1.4" fill="#1c1c20"/><circle cx="1000" cy="600" r="1.4" fill="#1c1c20"/><circle cx="1040" cy="600" r="1.4" fill="#1c1c20"/><circle cx="1080" cy="600" r="1.4" fill="#1c1c20"/><circle cx="1120" cy="600" r="1.4" fill="#1c1c20"/><circle cx="1160" cy="600" r="1.4" fill="#1c1c20"/>
<rect x="7.7" y="309.8" width="18.9" height="80.8" fill="#27272a" rx="2"/><rect x="42.0" y="106.1" width="18.9" height="284.5" fill="#27272a" rx="2"/><rect x="76.3" y="282.4" width="18.9" height="108.2" fill="#27272a" rx="2"/><rect x="110.6" y="169.2" width="18.9" height="221.4" fill="#27272a" rx="2"/><rect x="144.9" y="334.5" width="18.9" height="56.1" fill="#27272a" rx="2"/><rect x="179.1" y="287.0" width="18.9" height="103.6" fill="#27272a" rx="2"/><rect x="213.4" y="163.3" width="18.9" height="227.3" fill="#27272a" rx="2"/><rect x="247.7" y="181.9" width="18.9" height="208.7" fill="#27272a" rx="2"/><rect x="282.0" y="240.8" width="18.9" height="149.8" fill="#27272a" rx="2"/><rect x="316.3" y="248.6" width="18.9" height="142.0" fill="#22c55e" fill-opacity="0.85" rx="2"/><rect x="350.6" y="194.1" width="18.9" height="196.5" fill="#27272a" rx="2"/><rect x="384.9" y="280.9" width="18.9" height="109.7" fill="#27272a" rx="2"/><rect x="419.1" y="127.6" width="18.9" height="263.0" fill="#27272a" rx="2"/><rect x="453.4" y="290.3" width="18.9" height="100.3" fill="#27272a" rx="2"/><rect x="487.7" y="98.5" width="18.9" height="292.1" fill="#27272a" rx="2"/><rect x="522.0" y="96.5" width="18.9" height="294.1" fill="#27272a" rx="2"/><rect x="556.3" y="166.6" width="18.9" height="224.0" fill="#27272a" rx="2"/><rect x="590.6" y="238.3" width="18.9" height="152.3" fill="#27272a" rx="2"/><rect x="624.9" y="220.4" width="18.9" height="170.2" fill="#27272a" rx="2"/><rect x="659.1" y="167.9" width="18.9" height="222.7" fill="#22c55e" fill-opacity="0.85" rx="2"/><rect x="693.4" y="307.2" width="18.9" height="83.4" fill="#27272a" rx="2"/><rect x="727.7" y="333.7" width="18.9" height="56.9" fill="#27272a" rx="2"/><rect x="762.0" y="202.9" width="18.9" height="187.7" fill="#27272a" rx="2"/><rect x="796.3" y="242.2" width="18.9" height="148.4" fill="#27272a" rx="2"/><rect x="830.6" y="226.7" width="18.9" height="163.9" fill="#27272a" rx="2"/><rect x="864.9" y="239.7" width="18.9" height="150.9" fill="#27272a" rx="2"/><rect x="899.1" y="243.6" width="18.9" height="147.0" fill="#27272a" rx="2"/><rect x="933.4" y="269.2" width="18.9" height="121.4" fill="#27272a" rx="2"/><rect x="967.7" y="143.4" width="18.9" height="247.2" fill="#27272a" rx="2"/><rect x="1002.0" y="334.7" width="18.9" height="55.9" fill="#27272a" rx="2"/><rect x="1036.3" y="204.5" width="18.9" height="186.1" fill="#27272a" rx="2"/><rect x="1070.6" y="343.2" width="18.9" height="47.4" fill="#27272a" rx="2"/><rect x="1104.9" y="180.4" width="18.9" height="210.2" fill="#27272a" rx="2"/><rect x="1139.1" y="91.6" width="18.9" height="299.0" fill="#22c55e" fill-opacity="0.85" rx="2"/><rect x="1173.4" y="298.1" width="18.9" height="92.5" fill="#27272a" rx="2"/>


<text x="64" y="596" font-family="'JetBrains Mono', ui-monospace, monospace" font-size="16" letter-spacing="1" fill="#71717a">supergood<tspan fill="#22c55e">.</tspan>solutions</text>
</svg>