<svg xmlns="http://www.w3.org/2000/svg" width="1200" height="630" viewBox="0 0 1200 630">
<defs>
  <filter id="glow" x="-60%" y="-60%" width="220%" height="220%">
    <feGaussianBlur stdDeviation="7" result="b"/>
    <feMerge><feMergeNode in="b"/><feMergeNode in="SourceGraphic"/></feMerge>
  </filter>
  <linearGradient id="vig" x1="0" y1="0" x2="0" y2="1">
    <stop offset="0%" stop-color="#0a0a0b" stop-opacity="0"/>
    <stop offset="100%" stop-color="#0a0a0b" stop-opacity="0.85"/>
  </linearGradient>
</defs>
<rect width="1200" height="630" fill="#0a0a0b"/>
<circle cx="40" cy="40" r="1.4" fill="#1c1c20"/><circle cx="80" cy="40" r="1.4" fill="#1c1c20"/><circle cx="120" cy="40" r="1.4" fill="#1c1c20"/><circle cx="160" cy="40" r="1.4" fill="#1c1c20"/><circle cx="200" cy="40" r="1.4" fill="#1c1c20"/><circle cx="240" cy="40" r="1.4" fill="#1c1c20"/><circle cx="280" cy="40" r="1.4" fill="#1c1c20"/><circle cx="320" cy="40" r="1.4" fill="#1c1c20"/><circle cx="360" cy="40" r="1.4" fill="#1c1c20"/><circle cx="400" cy="40" r="1.4" fill="#1c1c20"/><circle cx="440" cy="40" r="1.4" fill="#1c1c20"/><circle cx="480" cy="40" r="1.4" fill="#1c1c20"/><circle cx="520" cy="40" r="1.4" fill="#1c1c20"/><circle cx="560" cy="40" r="1.4" fill="#1c1c20"/><circle cx="600" cy="40" r="1.4" fill="#1c1c20"/><circle cx="640" cy="40" r="1.4" fill="#1c1c20"/><circle cx="680" cy="40" r="1.4" fill="#1c1c20"/><circle cx="720" cy="40" r="1.4" fill="#1c1c20"/><circle cx="760" cy="40" r="1.4" fill="#1c1c20"/><circle cx="800" cy="40" r="1.4" fill="#1c1c20"/><circle cx="840" cy="40" r="1.4" fill="#1c1c20"/><circle cx="880" cy="40" r="1.4" fill="#1c1c20"/><circle cx="920" cy="40" r="1.4" fill="#1c1c20"/><circle cx="960" cy="40" r="1.4" fill="#1c1c20"/><circle cx="1000" cy="40" r="1.4" fill="#1c1c20"/><circle cx="1040" cy="40" r="1.4" fill="#1c1c20"/><circle cx="1080" cy="40" r="1.4" fill="#1c1c20"/><circle cx="1120" cy="40" r="1.4" fill="#1c1c20"/><circle cx="1160" cy="40" r="1.4" fill="#1c1c20"/><circle cx="40" cy="80" r="1.4" fill="#1c1c20"/><circle cx="80" cy="80" r="1.4" fill="#1c1c20"/><circle cx="120" cy="80" r="1.4" fill="#1c1c20"/><circle cx="160" cy="80" r="1.4" fill="#1c1c20"/><circle cx="200" cy="80" r="1.4" fill="#1c1c20"/><circle cx="240" cy="80" r="1.4" fill="#1c1c20"/><circle cx="280" cy="80" r="1.4" fill="#1c1c20"/><circle cx="320" cy="80" r="1.4" fill="#1c1c20"/><circle cx="360" cy="80" r="1.4" fill="#1c1c20"/><circle cx="400" cy="80" r="1.4" fill="#1c1c20"/><circle cx="440" cy="80" r="1.4" fill="#1c1c20"/><circle cx="480" cy="80" r="1.4" fill="#1c1c20"/><circle cx="520" cy="80" r="1.4" fill="#1c1c20"/><circle cx="560" cy="80" r="1.4" fill="#1c1c20"/><circle cx="600" cy="80" r="1.4" fill="#1c1c20"/><circle cx="640" cy="80" r="1.4" fill="#1c1c20"/><circle cx="680" cy="80" r="1.4" fill="#1c1c20"/><circle cx="720" cy="80" r="1.4" fill="#1c1c20"/><circle cx="760" cy="80" r="1.4" fill="#1c1c20"/><circle cx="800" cy="80" r="1.4" fill="#1c1c20"/><circle cx="840" cy="80" r="1.4" fill="#1c1c20"/><circle cx="880" cy="80" r="1.4" fill="#1c1c20"/><circle cx="920" cy="80" r="1.4" fill="#1c1c20"/><circle cx="960" cy="80" r="1.4" fill="#1c1c20"/><circle cx="1000" cy="80" r="1.4" fill="#1c1c20"/><circle cx="1040" cy="80" r="1.4" fill="#1c1c20"/><circle cx="1080" cy="80" r="1.4" fill="#1c1c20"/><circle cx="1120" cy="80" r="1.4" fill="#1c1c20"/><circle cx="1160" cy="80" r="1.4" fill="#1c1c20"/><circle cx="40" cy="120" r="1.4" fill="#1c1c20"/><circle cx="80" cy="120" r="1.4" fill="#1c1c20"/><circle cx="120" cy="120" r="1.4" fill="#1c1c20"/><circle cx="160" cy="120" r="1.4" fill="#1c1c20"/><circle cx="200" cy="120" r="1.4" fill="#1c1c20"/><circle cx="240" cy="120" r="1.4" fill="#1c1c20"/><circle cx="280" cy="120" r="1.4" fill="#1c1c20"/><circle cx="320" cy="120" r="1.4" fill="#1c1c20"/><circle cx="360" cy="120" r="1.4" fill="#1c1c20"/><circle cx="400" cy="120" r="1.4" fill="#1c1c20"/><circle cx="440" cy="120" r="1.4" fill="#1c1c20"/><circle cx="480" cy="120" r="1.4" fill="#1c1c20"/><circle cx="520" cy="120" r="1.4" fill="#1c1c20"/><circle cx="560" cy="120" r="1.4" fill="#1c1c20"/><circle cx="600" cy="120" r="1.4" fill="#1c1c20"/><circle cx="640" cy="120" r="1.4" fill="#1c1c20"/><circle cx="680" cy="120" r="1.4" fill="#1c1c20"/><circle cx="720" cy="120" r="1.4" fill="#1c1c20"/><circle cx="760" cy="120" r="1.4" fill="#1c1c20"/><circle cx="800" cy="120" r="1.4" fill="#1c1c20"/><circle cx="840" cy="120" r="1.4" fill="#1c1c20"/><circle cx="880" cy="120" r="1.4" fill="#1c1c20"/><circle cx="920" cy="120" r="1.4" fill="#1c1c20"/><circle cx="960" cy="120" r="1.4" fill="#1c1c20"/><circle cx="1000" cy="120" r="1.4" fill="#1c1c20"/><circle cx="1040" cy="120" r="1.4" fill="#1c1c20"/><circle cx="1080" cy="120" r="1.4" fill="#1c1c20"/><circle cx="1120" cy="120" r="1.4" fill="#1c1c20"/><circle cx="1160" cy="120" r="1.4" fill="#1c1c20"/><circle cx="40" cy="160" r="1.4" fill="#1c1c20"/><circle cx="80" cy="160" r="1.4" fill="#1c1c20"/><circle cx="120" cy="160" r="1.4" fill="#1c1c20"/><circle cx="160" cy="160" r="1.4" fill="#1c1c20"/><circle cx="200" cy="160" r="1.4" fill="#1c1c20"/><circle cx="240" cy="160" r="1.4" fill="#1c1c20"/><circle cx="280" cy="160" r="1.4" fill="#1c1c20"/><circle cx="320" cy="160" r="1.4" fill="#1c1c20"/><circle cx="360" cy="160" r="1.4" fill="#1c1c20"/><circle cx="400" cy="160" r="1.4" fill="#1c1c20"/><circle cx="440" cy="160" r="1.4" fill="#1c1c20"/><circle cx="480" cy="160" r="1.4" fill="#1c1c20"/><circle cx="520" cy="160" r="1.4" fill="#1c1c20"/><circle cx="560" cy="160" r="1.4" fill="#1c1c20"/><circle cx="600" cy="160" r="1.4" fill="#1c1c20"/><circle cx="640" cy="160" r="1.4" fill="#1c1c20"/><circle cx="680" cy="160" r="1.4" fill="#1c1c20"/><circle cx="720" cy="160" r="1.4" fill="#1c1c20"/><circle cx="760" cy="160" r="1.4" fill="#1c1c20"/><circle cx="800" cy="160" r="1.4" fill="#1c1c20"/><circle cx="840" cy="160" r="1.4" fill="#1c1c20"/><circle cx="880" cy="160" r="1.4" fill="#1c1c20"/><circle cx="920" cy="160" r="1.4" fill="#1c1c20"/><circle cx="960" cy="160" r="1.4" fill="#1c1c20"/><circle cx="1000" cy="160" r="1.4" fill="#1c1c20"/><circle cx="1040" cy="160" r="1.4" fill="#1c1c20"/><circle cx="1080" cy="160" r="1.4" fill="#1c1c20"/><circle cx="1120" cy="160" r="1.4" fill="#1c1c20"/><circle cx="1160" cy="160" r="1.4" fill="#1c1c20"/><circle cx="40" cy="200" r="1.4" fill="#1c1c20"/><circle cx="80" cy="200" r="1.4" fill="#1c1c20"/><circle cx="120" cy="200" r="1.4" fill="#1c1c20"/><circle cx="160" cy="200" r="1.4" fill="#1c1c20"/><circle cx="200" cy="200" r="1.4" fill="#1c1c20"/><circle cx="240" cy="200" r="1.4" fill="#1c1c20"/><circle cx="280" cy="200" r="1.4" fill="#1c1c20"/><circle cx="320" cy="200" r="1.4" fill="#1c1c20"/><circle cx="360" cy="200" r="1.4" fill="#1c1c20"/><circle cx="400" cy="200" r="1.4" fill="#1c1c20"/><circle cx="440" cy="200" r="1.4" fill="#1c1c20"/><circle cx="480" cy="200" r="1.4" fill="#1c1c20"/><circle cx="520" cy="200" r="1.4" fill="#1c1c20"/><circle cx="560" cy="200" r="1.4" fill="#1c1c20"/><circle cx="600" cy="200" r="1.4" fill="#1c1c20"/><circle cx="640" cy="200" r="1.4" fill="#1c1c20"/><circle cx="680" cy="200" r="1.4" fill="#1c1c20"/><circle cx="720" cy="200" r="1.4" fill="#1c1c20"/><circle cx="760" cy="200" r="1.4" fill="#1c1c20"/><circle cx="800" cy="200" r="1.4" fill="#1c1c20"/><circle cx="840" cy="200" r="1.4" fill="#1c1c20"/><circle cx="880" cy="200" r="1.4" fill="#1c1c20"/><circle cx="920" cy="200" r="1.4" fill="#1c1c20"/><circle cx="960" cy="200" r="1.4" fill="#1c1c20"/><circle cx="1000" cy="200" r="1.4" fill="#1c1c20"/><circle cx="1040" cy="200" r="1.4" fill="#1c1c20"/><circle cx="1080" cy="200" r="1.4" fill="#1c1c20"/><circle cx="1120" cy="200" r="1.4" fill="#1c1c20"/><circle cx="1160" cy="200" r="1.4" fill="#1c1c20"/><circle cx="40" cy="240" r="1.4" fill="#1c1c20"/><circle cx="80" cy="240" r="1.4" fill="#1c1c20"/><circle cx="120" cy="240" r="1.4" fill="#1c1c20"/><circle cx="160" cy="240" r="1.4" fill="#1c1c20"/><circle cx="200" cy="240" r="1.4" fill="#1c1c20"/><circle cx="240" cy="240" r="1.4" fill="#1c1c20"/><circle cx="280" cy="240" r="1.4" fill="#1c1c20"/><circle cx="320" cy="240" r="1.4" fill="#1c1c20"/><circle cx="360" cy="240" r="1.4" fill="#1c1c20"/><circle cx="400" cy="240" r="1.4" fill="#1c1c20"/><circle cx="440" cy="240" r="1.4" fill="#1c1c20"/><circle cx="480" cy="240" r="1.4" fill="#1c1c20"/><circle cx="520" cy="240" r="1.4" fill="#1c1c20"/><circle cx="560" cy="240" r="1.4" fill="#1c1c20"/><circle cx="600" cy="240" r="1.4" fill="#1c1c20"/><circle cx="640" cy="240" r="1.4" fill="#1c1c20"/><circle cx="680" cy="240" r="1.4" fill="#1c1c20"/><circle cx="720" cy="240" r="1.4" fill="#1c1c20"/><circle cx="760" cy="240" r="1.4" fill="#1c1c20"/><circle cx="800" cy="240" r="1.4" fill="#1c1c20"/><circle cx="840" cy="240" r="1.4" fill="#1c1c20"/><circle cx="880" cy="240" r="1.4" fill="#1c1c20"/><circle cx="920" cy="240" r="1.4" fill="#1c1c20"/><circle cx="960" cy="240" r="1.4" fill="#1c1c20"/><circle cx="1000" cy="240" r="1.4" fill="#1c1c20"/><circle cx="1040" cy="240" r="1.4" fill="#1c1c20"/><circle cx="1080" cy="240" r="1.4" fill="#1c1c20"/><circle cx="1120" cy="240" r="1.4" fill="#1c1c20"/><circle cx="1160" cy="240" r="1.4" fill="#1c1c20"/><circle cx="40" cy="280" r="1.4" fill="#1c1c20"/><circle cx="80" cy="280" r="1.4" fill="#1c1c20"/><circle cx="120" cy="280" r="1.4" fill="#1c1c20"/><circle cx="160" cy="280" r="1.4" fill="#1c1c20"/><circle cx="200" cy="280" r="1.4" fill="#1c1c20"/><circle cx="240" cy="280" r="1.4" fill="#1c1c20"/><circle cx="280" cy="280" r="1.4" fill="#1c1c20"/><circle cx="320" cy="280" r="1.4" fill="#1c1c20"/><circle cx="360" cy="280" r="1.4" fill="#1c1c20"/><circle cx="400" cy="280" r="1.4" fill="#1c1c20"/><circle cx="440" cy="280" r="1.4" fill="#1c1c20"/><circle cx="480" cy="280" r="1.4" fill="#1c1c20"/><circle cx="520" cy="280" r="1.4" fill="#1c1c20"/><circle cx="560" cy="280" r="1.4" fill="#1c1c20"/><circle cx="600" cy="280" r="1.4" fill="#1c1c20"/><circle cx="640" cy="280" r="1.4" fill="#1c1c20"/><circle cx="680" cy="280" r="1.4" fill="#1c1c20"/><circle cx="720" cy="280" r="1.4" fill="#1c1c20"/><circle cx="760" cy="280" r="1.4" fill="#1c1c20"/><circle cx="800" cy="280" r="1.4" fill="#1c1c20"/><circle cx="840" cy="280" r="1.4" fill="#1c1c20"/><circle cx="880" cy="280" r="1.4" fill="#1c1c20"/><circle cx="920" cy="280" r="1.4" fill="#1c1c20"/><circle cx="960" cy="280" r="1.4" fill="#1c1c20"/><circle cx="1000" cy="280" r="1.4" fill="#1c1c20"/><circle cx="1040" cy="280" r="1.4" fill="#1c1c20"/><circle cx="1080" cy="280" r="1.4" fill="#1c1c20"/><circle cx="1120" cy="280" r="1.4" fill="#1c1c20"/><circle cx="1160" cy="280" r="1.4" fill="#1c1c20"/><circle cx="40" cy="320" r="1.4" fill="#1c1c20"/><circle cx="80" cy="320" r="1.4" fill="#1c1c20"/><circle cx="120" cy="320" r="1.4" fill="#1c1c20"/><circle cx="160" cy="320" r="1.4" fill="#1c1c20"/><circle cx="200" cy="320" r="1.4" fill="#1c1c20"/><circle cx="240" cy="320" r="1.4" fill="#1c1c20"/><circle cx="280" cy="320" r="1.4" fill="#1c1c20"/><circle cx="320" cy="320" r="1.4" fill="#1c1c20"/><circle cx="360" cy="320" r="1.4" fill="#1c1c20"/><circle cx="400" cy="320" r="1.4" fill="#1c1c20"/><circle cx="440" cy="320" r="1.4" fill="#1c1c20"/><circle cx="480" cy="320" r="1.4" fill="#1c1c20"/><circle cx="520" cy="320" r="1.4" fill="#1c1c20"/><circle cx="560" cy="320" r="1.4" fill="#1c1c20"/><circle cx="600" cy="320" r="1.4" fill="#1c1c20"/><circle cx="640" cy="320" r="1.4" fill="#1c1c20"/><circle cx="680" cy="320" r="1.4" fill="#1c1c20"/><circle cx="720" cy="320" r="1.4" fill="#1c1c20"/><circle cx="760" cy="320" r="1.4" fill="#1c1c20"/><circle cx="800" cy="320" r="1.4" fill="#1c1c20"/><circle cx="840" cy="320" r="1.4" fill="#1c1c20"/><circle cx="880" cy="320" r="1.4" fill="#1c1c20"/><circle cx="920" cy="320" r="1.4" fill="#1c1c20"/><circle cx="960" cy="320" r="1.4" fill="#1c1c20"/><circle cx="1000" cy="320" r="1.4" fill="#1c1c20"/><circle cx="1040" cy="320" r="1.4" fill="#1c1c20"/><circle cx="1080" cy="320" r="1.4" fill="#1c1c20"/><circle cx="1120" cy="320" r="1.4" fill="#1c1c20"/><circle cx="1160" cy="320" r="1.4" fill="#1c1c20"/><circle cx="40" cy="360" r="1.4" fill="#1c1c20"/><circle cx="80" cy="360" r="1.4" fill="#1c1c20"/><circle cx="120" cy="360" r="1.4" fill="#1c1c20"/><circle cx="160" cy="360" r="1.4" fill="#1c1c20"/><circle cx="200" cy="360" r="1.4" fill="#1c1c20"/><circle cx="240" cy="360" r="1.4" fill="#1c1c20"/><circle cx="280" cy="360" r="1.4" fill="#1c1c20"/><circle cx="320" cy="360" r="1.4" fill="#1c1c20"/><circle cx="360" cy="360" r="1.4" fill="#1c1c20"/><circle cx="400" cy="360" r="1.4" fill="#1c1c20"/><circle cx="440" cy="360" r="1.4" fill="#1c1c20"/><circle cx="480" cy="360" r="1.4" fill="#1c1c20"/><circle cx="520" cy="360" r="1.4" fill="#1c1c20"/><circle cx="560" cy="360" r="1.4" fill="#1c1c20"/><circle cx="600" cy="360" r="1.4" fill="#1c1c20"/><circle cx="640" cy="360" r="1.4" fill="#1c1c20"/><circle cx="680" cy="360" r="1.4" fill="#1c1c20"/><circle cx="720" cy="360" r="1.4" fill="#1c1c20"/><circle cx="760" cy="360" r="1.4" fill="#1c1c20"/><circle cx="800" cy="360" r="1.4" fill="#1c1c20"/><circle cx="840" cy="360" r="1.4" fill="#1c1c20"/><circle cx="880" cy="360" r="1.4" fill="#1c1c20"/><circle cx="920" cy="360" r="1.4" fill="#1c1c20"/><circle cx="960" cy="360" r="1.4" fill="#1c1c20"/><circle cx="1000" cy="360" r="1.4" fill="#1c1c20"/><circle cx="1040" cy="360" r="1.4" fill="#1c1c20"/><circle cx="1080" cy="360" r="1.4" fill="#1c1c20"/><circle cx="1120" cy="360" r="1.4" fill="#1c1c20"/><circle cx="1160" cy="360" r="1.4" fill="#1c1c20"/><circle cx="40" cy="400" r="1.4" fill="#1c1c20"/><circle cx="80" cy="400" r="1.4" fill="#1c1c20"/><circle cx="120" cy="400" r="1.4" fill="#1c1c20"/><circle cx="160" cy="400" r="1.4" fill="#1c1c20"/><circle cx="200" cy="400" r="1.4" fill="#1c1c20"/><circle cx="240" cy="400" r="1.4" fill="#1c1c20"/><circle cx="280" cy="400" r="1.4" fill="#1c1c20"/><circle cx="320" cy="400" r="1.4" fill="#1c1c20"/><circle cx="360" cy="400" r="1.4" fill="#1c1c20"/><circle cx="400" cy="400" r="1.4" fill="#1c1c20"/><circle cx="440" cy="400" r="1.4" fill="#1c1c20"/><circle cx="480" cy="400" r="1.4" fill="#1c1c20"/><circle cx="520" cy="400" r="1.4" fill="#1c1c20"/><circle cx="560" cy="400" r="1.4" fill="#1c1c20"/><circle cx="600" cy="400" r="1.4" fill="#1c1c20"/><circle cx="640" cy="400" r="1.4" fill="#1c1c20"/><circle cx="680" cy="400" r="1.4" fill="#1c1c20"/><circle cx="720" cy="400" r="1.4" fill="#1c1c20"/><circle cx="760" cy="400" r="1.4" fill="#1c1c20"/><circle cx="800" cy="400" r="1.4" fill="#1c1c20"/><circle cx="840" cy="400" r="1.4" fill="#1c1c20"/><circle cx="880" cy="400" r="1.4" fill="#1c1c20"/><circle cx="920" cy="400" r="1.4" fill="#1c1c20"/><circle cx="960" cy="400" r="1.4" fill="#1c1c20"/><circle cx="1000" cy="400" r="1.4" fill="#1c1c20"/><circle cx="1040" cy="400" r="1.4" fill="#1c1c20"/><circle cx="1080" cy="400" r="1.4" fill="#1c1c20"/><circle cx="1120" cy="400" r="1.4" fill="#1c1c20"/><circle cx="1160" cy="400" r="1.4" fill="#1c1c20"/><circle cx="40" cy="440" r="1.4" fill="#1c1c20"/><circle cx="80" cy="440" r="1.4" fill="#1c1c20"/><circle cx="120" cy="440" r="1.4" fill="#1c1c20"/><circle cx="160" cy="440" r="1.4" fill="#1c1c20"/><circle cx="200" cy="440" r="1.4" fill="#1c1c20"/><circle cx="240" cy="440" r="1.4" fill="#1c1c20"/><circle cx="280" cy="440" r="1.4" fill="#1c1c20"/><circle cx="320" cy="440" r="1.4" fill="#1c1c20"/><circle cx="360" cy="440" r="1.4" fill="#1c1c20"/><circle cx="400" cy="440" r="1.4" fill="#1c1c20"/><circle cx="440" cy="440" r="1.4" fill="#1c1c20"/><circle cx="480" cy="440" r="1.4" fill="#1c1c20"/><circle cx="520" cy="440" r="1.4" fill="#1c1c20"/><circle cx="560" cy="440" r="1.4" fill="#1c1c20"/><circle cx="600" cy="440" r="1.4" fill="#1c1c20"/><circle cx="640" cy="440" r="1.4" fill="#1c1c20"/><circle cx="680" cy="440" r="1.4" fill="#1c1c20"/><circle cx="720" cy="440" r="1.4" fill="#1c1c20"/><circle cx="760" cy="440" r="1.4" fill="#1c1c20"/><circle cx="800" cy="440" r="1.4" fill="#1c1c20"/><circle cx="840" cy="440" r="1.4" fill="#1c1c20"/><circle cx="880" cy="440" r="1.4" fill="#1c1c20"/><circle cx="920" cy="440" r="1.4" fill="#1c1c20"/><circle cx="960" cy="440" r="1.4" fill="#1c1c20"/><circle cx="1000" cy="440" r="1.4" fill="#1c1c20"/><circle cx="1040" cy="440" r="1.4" fill="#1c1c20"/><circle cx="1080" cy="440" r="1.4" fill="#1c1c20"/><circle cx="1120" cy="440" r="1.4" fill="#1c1c20"/><circle cx="1160" cy="440" r="1.4" fill="#1c1c20"/><circle cx="40" cy="480" r="1.4" fill="#1c1c20"/><circle cx="80" cy="480" r="1.4" fill="#1c1c20"/><circle cx="120" cy="480" r="1.4" fill="#1c1c20"/><circle cx="160" cy="480" r="1.4" fill="#1c1c20"/><circle cx="200" cy="480" r="1.4" fill="#1c1c20"/><circle cx="240" cy="480" r="1.4" fill="#1c1c20"/><circle cx="280" cy="480" r="1.4" fill="#1c1c20"/><circle cx="320" cy="480" r="1.4" fill="#1c1c20"/><circle cx="360" cy="480" r="1.4" fill="#1c1c20"/><circle cx="400" cy="480" r="1.4" fill="#1c1c20"/><circle cx="440" cy="480" r="1.4" fill="#1c1c20"/><circle cx="480" cy="480" r="1.4" fill="#1c1c20"/><circle cx="520" cy="480" r="1.4" fill="#1c1c20"/><circle cx="560" cy="480" r="1.4" fill="#1c1c20"/><circle cx="600" cy="480" r="1.4" fill="#1c1c20"/><circle cx="640" cy="480" r="1.4" fill="#1c1c20"/><circle cx="680" cy="480" r="1.4" fill="#1c1c20"/><circle cx="720" cy="480" r="1.4" fill="#1c1c20"/><circle cx="760" cy="480" r="1.4" fill="#1c1c20"/><circle cx="800" cy="480" r="1.4" fill="#1c1c20"/><circle cx="840" cy="480" r="1.4" fill="#1c1c20"/><circle cx="880" cy="480" r="1.4" fill="#1c1c20"/><circle cx="920" cy="480" r="1.4" fill="#1c1c20"/><circle cx="960" cy="480" r="1.4" fill="#1c1c20"/><circle cx="1000" cy="480" r="1.4" fill="#1c1c20"/><circle cx="1040" cy="480" r="1.4" fill="#1c1c20"/><circle cx="1080" cy="480" r="1.4" fill="#1c1c20"/><circle cx="1120" cy="480" r="1.4" fill="#1c1c20"/><circle cx="1160" cy="480" r="1.4" fill="#1c1c20"/><circle cx="40" cy="520" r="1.4" fill="#1c1c20"/><circle cx="80" cy="520" r="1.4" fill="#1c1c20"/><circle cx="120" cy="520" r="1.4" fill="#1c1c20"/><circle cx="160" cy="520" r="1.4" fill="#1c1c20"/><circle cx="200" cy="520" r="1.4" fill="#1c1c20"/><circle cx="240" cy="520" r="1.4" fill="#1c1c20"/><circle cx="280" cy="520" r="1.4" fill="#1c1c20"/><circle cx="320" cy="520" r="1.4" fill="#1c1c20"/><circle cx="360" cy="520" r="1.4" fill="#1c1c20"/><circle cx="400" cy="520" r="1.4" fill="#1c1c20"/><circle cx="440" cy="520" r="1.4" fill="#1c1c20"/><circle cx="480" cy="520" r="1.4" fill="#1c1c20"/><circle cx="520" cy="520" r="1.4" fill="#1c1c20"/><circle cx="560" cy="520" r="1.4" fill="#1c1c20"/><circle cx="600" cy="520" r="1.4" fill="#1c1c20"/><circle cx="640" cy="520" r="1.4" fill="#1c1c20"/><circle cx="680" cy="520" r="1.4" fill="#1c1c20"/><circle cx="720" cy="520" r="1.4" fill="#1c1c20"/><circle cx="760" cy="520" r="1.4" fill="#1c1c20"/><circle cx="800" cy="520" r="1.4" fill="#1c1c20"/><circle cx="840" cy="520" r="1.4" fill="#1c1c20"/><circle cx="880" cy="520" r="1.4" fill="#1c1c20"/><circle cx="920" cy="520" r="1.4" fill="#1c1c20"/><circle cx="960" cy="520" r="1.4" fill="#1c1c20"/><circle cx="1000" cy="520" r="1.4" fill="#1c1c20"/><circle cx="1040" cy="520" r="1.4" fill="#1c1c20"/><circle cx="1080" cy="520" r="1.4" fill="#1c1c20"/><circle cx="1120" cy="520" r="1.4" fill="#1c1c20"/><circle cx="1160" cy="520" r="1.4" fill="#1c1c20"/><circle cx="40" cy="560" r="1.4" fill="#1c1c20"/><circle cx="80" cy="560" r="1.4" fill="#1c1c20"/><circle cx="120" cy="560" r="1.4" fill="#1c1c20"/><circle cx="160" cy="560" r="1.4" fill="#1c1c20"/><circle cx="200" cy="560" r="1.4" fill="#1c1c20"/><circle cx="240" cy="560" r="1.4" fill="#1c1c20"/><circle cx="280" cy="560" r="1.4" fill="#1c1c20"/><circle cx="320" cy="560" r="1.4" fill="#1c1c20"/><circle cx="360" cy="560" r="1.4" fill="#1c1c20"/><circle cx="400" cy="560" r="1.4" fill="#1c1c20"/><circle cx="440" cy="560" r="1.4" fill="#1c1c20"/><circle cx="480" cy="560" r="1.4" fill="#1c1c20"/><circle cx="520" cy="560" r="1.4" fill="#1c1c20"/><circle cx="560" cy="560" r="1.4" fill="#1c1c20"/><circle cx="600" cy="560" r="1.4" fill="#1c1c20"/><circle cx="640" cy="560" r="1.4" fill="#1c1c20"/><circle cx="680" cy="560" r="1.4" fill="#1c1c20"/><circle cx="720" cy="560" r="1.4" fill="#1c1c20"/><circle cx="760" cy="560" r="1.4" fill="#1c1c20"/><circle cx="800" cy="560" r="1.4" fill="#1c1c20"/><circle cx="840" cy="560" r="1.4" fill="#1c1c20"/><circle cx="880" cy="560" r="1.4" fill="#1c1c20"/><circle cx="920" cy="560" r="1.4" fill="#1c1c20"/><circle cx="960" cy="560" r="1.4" fill="#1c1c20"/><circle cx="1000" cy="560" r="1.4" fill="#1c1c20"/><circle cx="1040" cy="560" r="1.4" fill="#1c1c20"/><circle cx="1080" cy="560" r="1.4" fill="#1c1c20"/><circle cx="1120" cy="560" r="1.4" fill="#1c1c20"/><circle cx="1160" cy="560" r="1.4" fill="#1c1c20"/><circle cx="40" cy="600" r="1.4" fill="#1c1c20"/><circle cx="80" cy="600" r="1.4" fill="#1c1c20"/><circle cx="120" cy="600" r="1.4" fill="#1c1c20"/><circle cx="160" cy="600" r="1.4" fill="#1c1c20"/><circle cx="200" cy="600" r="1.4" fill="#1c1c20"/><circle cx="240" cy="600" r="1.4" fill="#1c1c20"/><circle cx="280" cy="600" r="1.4" fill="#1c1c20"/><circle cx="320" cy="600" r="1.4" fill="#1c1c20"/><circle cx="360" cy="600" r="1.4" fill="#1c1c20"/><circle cx="400" cy="600" r="1.4" fill="#1c1c20"/><circle cx="440" cy="600" r="1.4" fill="#1c1c20"/><circle cx="480" cy="600" r="1.4" fill="#1c1c20"/><circle cx="520" cy="600" r="1.4" fill="#1c1c20"/><circle cx="560" cy="600" r="1.4" fill="#1c1c20"/><circle cx="600" cy="600" r="1.4" fill="#1c1c20"/><circle cx="640" cy="600" r="1.4" fill="#1c1c20"/><circle cx="680" cy="600" r="1.4" fill="#1c1c20"/><circle cx="720" cy="600" r="1.4" fill="#1c1c20"/><circle cx="760" cy="600" r="1.4" fill="#1c1c20"/><circle cx="800" cy="600" r="1.4" fill="#1c1c20"/><circle cx="840" cy="600" r="1.4" fill="#1c1c20"/><circle cx="880" cy="600" r="1.4" fill="#1c1c20"/><circle cx="920" cy="600" r="1.4" fill="#1c1c20"/><circle cx="960" cy="600" r="1.4" fill="#1c1c20"/><circle cx="1000" cy="600" r="1.4" fill="#1c1c20"/><circle cx="1040" cy="600" r="1.4" fill="#1c1c20"/><circle cx="1080" cy="600" r="1.4" fill="#1c1c20"/><circle cx="1120" cy="600" r="1.4" fill="#1c1c20"/><circle cx="1160" cy="600" r="1.4" fill="#1c1c20"/>
<rect x="6.0" y="163.0" width="14.7" height="227.6" fill="#27272a" rx="2"/><rect x="32.7" y="285.0" width="14.7" height="105.6" fill="#27272a" rx="2"/><rect x="59.3" y="209.5" width="14.7" height="181.1" fill="#27272a" rx="2"/><rect x="86.0" y="286.1" width="14.7" height="104.5" fill="#27272a" rx="2"/><rect x="112.7" y="299.4" width="14.7" height="91.2" fill="#27272a" rx="2"/><rect x="139.3" y="116.1" width="14.7" height="274.5" fill="#27272a" rx="2"/><rect x="166.0" y="93.8" width="14.7" height="296.8" fill="#27272a" rx="2"/><rect x="192.7" y="202.7" width="14.7" height="187.9" fill="#27272a" rx="2"/><rect x="219.3" y="173.1" width="14.7" height="217.5" fill="#27272a" rx="2"/><rect x="246.0" y="245.6" width="14.7" height="145.0" fill="#27272a" rx="2"/><rect x="272.7" y="222.8" width="14.7" height="167.8" fill="#27272a" rx="2"/><rect x="299.3" y="312.6" width="14.7" height="78.0" fill="#27272a" rx="2"/><rect x="326.0" y="343.9" width="14.7" height="46.7" fill="#27272a" rx="2"/><rect x="352.7" y="148.2" width="14.7" height="242.4" fill="#27272a" rx="2"/><rect x="379.3" y="253.7" width="14.7" height="136.9" fill="#27272a" rx="2"/><rect x="406.0" y="218.4" width="14.7" height="172.2" fill="#27272a" rx="2"/><rect x="432.7" y="340.7" width="14.7" height="49.9" fill="#22c55e" fill-opacity="0.85" rx="2"/><rect x="459.3" y="244.4" width="14.7" height="146.2" fill="#27272a" rx="2"/><rect x="486.0" y="183.9" width="14.7" height="206.7" fill="#27272a" rx="2"/><rect x="512.7" y="121.9" width="14.7" height="268.7" fill="#27272a" rx="2"/><rect x="539.3" y="202.3" width="14.7" height="188.3" fill="#27272a" rx="2"/><rect x="566.0" y="261.2" width="14.7" height="129.4" fill="#27272a" rx="2"/><rect x="592.7" y="231.3" width="14.7" height="159.3" fill="#27272a" rx="2"/><rect x="619.3" y="342.8" width="14.7" height="47.8" fill="#27272a" rx="2"/><rect x="646.0" y="290.4" width="14.7" height="100.2" fill="#27272a" rx="2"/><rect x="672.7" y="140.3" width="14.7" height="250.3" fill="#22c55e" fill-opacity="0.85" rx="2"/><rect x="699.3" y="282.6" width="14.7" height="108.0" fill="#27272a" rx="2"/><rect x="726.0" y="275.6" width="14.7" height="115.0" fill="#27272a" rx="2"/><rect x="752.7" y="182.5" width="14.7" height="208.1" fill="#27272a" rx="2"/><rect x="779.3" y="256.3" width="14.7" height="134.3" fill="#27272a" rx="2"/><rect x="806.0" y="122.1" width="14.7" height="268.5" fill="#27272a" rx="2"/><rect x="832.7" y="324.0" width="14.7" height="66.6" fill="#27272a" rx="2"/><rect x="859.3" y="145.3" width="14.7" height="245.3" fill="#27272a" rx="2"/><rect x="886.0" y="101.5" width="14.7" height="289.1" fill="#27272a" rx="2"/><rect x="912.7" y="243.1" width="14.7" height="147.5" fill="#22c55e" fill-opacity="0.85" rx="2"/><rect x="939.3" y="311.1" width="14.7" height="79.5" fill="#27272a" rx="2"/><rect x="966.0" y="148.9" width="14.7" height="241.7" fill="#27272a" rx="2"/><rect x="992.7" y="287.5" width="14.7" height="103.1" fill="#27272a" rx="2"/><rect x="1019.3" y="101.9" width="14.7" height="288.7" fill="#27272a" rx="2"/><rect x="1046.0" y="320.0" width="14.7" height="70.6" fill="#27272a" rx="2"/><rect x="1072.7" y="220.2" width="14.7" height="170.4" fill="#27272a" rx="2"/><rect x="1099.3" y="278.4" width="14.7" height="112.2" fill="#27272a" rx="2"/><rect x="1126.0" y="341.2" width="14.7" height="49.4" fill="#27272a" rx="2"/><rect x="1152.7" y="132.7" width="14.7" height="257.9" fill="#27272a" rx="2"/><rect x="1179.3" y="245.5" width="14.7" height="145.1" fill="#27272a" rx="2"/>


<text x="64" y="596" font-family="'JetBrains Mono', ui-monospace, monospace" font-size="16" letter-spacing="1" fill="#71717a">supergood<tspan fill="#22c55e">.</tspan>solutions</text>
</svg>