<svg xmlns="http://www.w3.org/2000/svg" width="1200" height="630" viewBox="0 0 1200 630">
<defs>
  <filter id="glow" x="-60%" y="-60%" width="220%" height="220%">
    <feGaussianBlur stdDeviation="7" result="b"/>
    <feMerge><feMergeNode in="b"/><feMergeNode in="SourceGraphic"/></feMerge>
  </filter>
  <linearGradient id="vig" x1="0" y1="0" x2="0" y2="1">
    <stop offset="0%" stop-color="#0a0a0b" stop-opacity="0"/>
    <stop offset="100%" stop-color="#0a0a0b" stop-opacity="0.85"/>
  </linearGradient>
</defs>
<rect width="1200" height="630" fill="#0a0a0b"/>
<circle cx="40" cy="40" r="1.4" fill="#1c1c20"/><circle cx="80" cy="40" r="1.4" fill="#1c1c20"/><circle cx="120" cy="40" r="1.4" fill="#1c1c20"/><circle cx="160" cy="40" r="1.4" fill="#1c1c20"/><circle cx="200" cy="40" r="1.4" fill="#1c1c20"/><circle cx="240" cy="40" r="1.4" fill="#1c1c20"/><circle cx="280" cy="40" r="1.4" fill="#1c1c20"/><circle cx="320" cy="40" r="1.4" fill="#1c1c20"/><circle cx="360" cy="40" r="1.4" fill="#1c1c20"/><circle cx="400" cy="40" r="1.4" fill="#1c1c20"/><circle cx="440" cy="40" r="1.4" fill="#1c1c20"/><circle cx="480" cy="40" r="1.4" fill="#1c1c20"/><circle cx="520" cy="40" r="1.4" fill="#1c1c20"/><circle cx="560" cy="40" r="1.4" fill="#1c1c20"/><circle cx="600" cy="40" r="1.4" fill="#1c1c20"/><circle cx="640" cy="40" r="1.4" fill="#1c1c20"/><circle cx="680" cy="40" r="1.4" fill="#1c1c20"/><circle cx="720" cy="40" r="1.4" fill="#1c1c20"/><circle cx="760" cy="40" r="1.4" fill="#1c1c20"/><circle cx="800" cy="40" r="1.4" fill="#1c1c20"/><circle cx="840" cy="40" r="1.4" fill="#1c1c20"/><circle cx="880" cy="40" r="1.4" fill="#1c1c20"/><circle cx="920" cy="40" r="1.4" fill="#1c1c20"/><circle cx="960" cy="40" r="1.4" fill="#1c1c20"/><circle cx="1000" cy="40" r="1.4" fill="#1c1c20"/><circle cx="1040" cy="40" r="1.4" fill="#1c1c20"/><circle cx="1080" cy="40" r="1.4" fill="#1c1c20"/><circle cx="1120" cy="40" r="1.4" fill="#1c1c20"/><circle cx="1160" cy="40" r="1.4" fill="#1c1c20"/><circle cx="40" cy="80" r="1.4" fill="#1c1c20"/><circle cx="80" cy="80" r="1.4" fill="#1c1c20"/><circle cx="120" cy="80" r="1.4" fill="#1c1c20"/><circle cx="160" cy="80" r="1.4" fill="#1c1c20"/><circle cx="200" cy="80" r="1.4" fill="#1c1c20"/><circle cx="240" cy="80" r="1.4" fill="#1c1c20"/><circle cx="280" cy="80" r="1.4" fill="#1c1c20"/><circle cx="320" cy="80" r="1.4" fill="#1c1c20"/><circle cx="360" cy="80" r="1.4" fill="#1c1c20"/><circle cx="400" cy="80" r="1.4" fill="#1c1c20"/><circle cx="440" cy="80" r="1.4" fill="#1c1c20"/><circle cx="480" cy="80" r="1.4" fill="#1c1c20"/><circle cx="520" cy="80" r="1.4" fill="#1c1c20"/><circle cx="560" cy="80" r="1.4" fill="#1c1c20"/><circle cx="600" cy="80" r="1.4" fill="#1c1c20"/><circle cx="640" cy="80" r="1.4" fill="#1c1c20"/><circle cx="680" cy="80" r="1.4" fill="#1c1c20"/><circle cx="720" cy="80" r="1.4" fill="#1c1c20"/><circle cx="760" cy="80" r="1.4" fill="#1c1c20"/><circle cx="800" cy="80" r="1.4" fill="#1c1c20"/><circle cx="840" cy="80" r="1.4" fill="#1c1c20"/><circle cx="880" cy="80" r="1.4" fill="#1c1c20"/><circle cx="920" cy="80" r="1.4" fill="#1c1c20"/><circle cx="960" cy="80" r="1.4" fill="#1c1c20"/><circle cx="1000" cy="80" r="1.4" fill="#1c1c20"/><circle cx="1040" cy="80" r="1.4" fill="#1c1c20"/><circle cx="1080" cy="80" r="1.4" fill="#1c1c20"/><circle cx="1120" cy="80" r="1.4" fill="#1c1c20"/><circle cx="1160" cy="80" r="1.4" fill="#1c1c20"/><circle cx="40" cy="120" r="1.4" fill="#1c1c20"/><circle cx="80" cy="120" r="1.4" fill="#1c1c20"/><circle cx="120" cy="120" r="1.4" fill="#1c1c20"/><circle cx="160" cy="120" r="1.4" fill="#1c1c20"/><circle cx="200" cy="120" r="1.4" fill="#1c1c20"/><circle cx="240" cy="120" r="1.4" fill="#1c1c20"/><circle cx="280" cy="120" r="1.4" fill="#1c1c20"/><circle cx="320" cy="120" r="1.4" fill="#1c1c20"/><circle cx="360" cy="120" r="1.4" fill="#1c1c20"/><circle cx="400" cy="120" r="1.4" fill="#1c1c20"/><circle cx="440" cy="120" r="1.4" fill="#1c1c20"/><circle cx="480" cy="120" r="1.4" fill="#1c1c20"/><circle cx="520" cy="120" r="1.4" fill="#1c1c20"/><circle cx="560" cy="120" r="1.4" fill="#1c1c20"/><circle cx="600" cy="120" r="1.4" fill="#1c1c20"/><circle cx="640" cy="120" r="1.4" fill="#1c1c20"/><circle cx="680" cy="120" r="1.4" fill="#1c1c20"/><circle cx="720" cy="120" r="1.4" fill="#1c1c20"/><circle cx="760" cy="120" r="1.4" fill="#1c1c20"/><circle cx="800" cy="120" r="1.4" fill="#1c1c20"/><circle cx="840" cy="120" r="1.4" fill="#1c1c20"/><circle cx="880" cy="120" r="1.4" fill="#1c1c20"/><circle cx="920" cy="120" r="1.4" fill="#1c1c20"/><circle cx="960" cy="120" r="1.4" fill="#1c1c20"/><circle cx="1000" cy="120" r="1.4" fill="#1c1c20"/><circle cx="1040" cy="120" r="1.4" fill="#1c1c20"/><circle cx="1080" cy="120" r="1.4" fill="#1c1c20"/><circle cx="1120" cy="120" r="1.4" fill="#1c1c20"/><circle cx="1160" cy="120" r="1.4" fill="#1c1c20"/><circle cx="40" cy="160" r="1.4" fill="#1c1c20"/><circle cx="80" cy="160" r="1.4" fill="#1c1c20"/><circle cx="120" cy="160" r="1.4" fill="#1c1c20"/><circle cx="160" cy="160" r="1.4" fill="#1c1c20"/><circle cx="200" cy="160" r="1.4" fill="#1c1c20"/><circle cx="240" cy="160" r="1.4" fill="#1c1c20"/><circle cx="280" cy="160" r="1.4" fill="#1c1c20"/><circle cx="320" cy="160" r="1.4" fill="#1c1c20"/><circle cx="360" cy="160" r="1.4" fill="#1c1c20"/><circle cx="400" cy="160" r="1.4" fill="#1c1c20"/><circle cx="440" cy="160" r="1.4" fill="#1c1c20"/><circle cx="480" cy="160" r="1.4" fill="#1c1c20"/><circle cx="520" cy="160" r="1.4" fill="#1c1c20"/><circle cx="560" cy="160" r="1.4" fill="#1c1c20"/><circle cx="600" cy="160" r="1.4" fill="#1c1c20"/><circle cx="640" cy="160" r="1.4" fill="#1c1c20"/><circle cx="680" cy="160" r="1.4" fill="#1c1c20"/><circle cx="720" cy="160" r="1.4" fill="#1c1c20"/><circle cx="760" cy="160" r="1.4" fill="#1c1c20"/><circle cx="800" cy="160" r="1.4" fill="#1c1c20"/><circle cx="840" cy="160" r="1.4" fill="#1c1c20"/><circle cx="880" cy="160" r="1.4" fill="#1c1c20"/><circle cx="920" cy="160" r="1.4" fill="#1c1c20"/><circle cx="960" cy="160" r="1.4" fill="#1c1c20"/><circle cx="1000" cy="160" r="1.4" fill="#1c1c20"/><circle cx="1040" cy="160" r="1.4" fill="#1c1c20"/><circle cx="1080" cy="160" r="1.4" fill="#1c1c20"/><circle cx="1120" cy="160" r="1.4" fill="#1c1c20"/><circle cx="1160" cy="160" r="1.4" fill="#1c1c20"/><circle cx="40" cy="200" r="1.4" fill="#1c1c20"/><circle cx="80" cy="200" r="1.4" fill="#1c1c20"/><circle cx="120" cy="200" r="1.4" fill="#1c1c20"/><circle cx="160" cy="200" r="1.4" fill="#1c1c20"/><circle cx="200" cy="200" r="1.4" fill="#1c1c20"/><circle cx="240" cy="200" r="1.4" fill="#1c1c20"/><circle cx="280" cy="200" r="1.4" fill="#1c1c20"/><circle cx="320" cy="200" r="1.4" fill="#1c1c20"/><circle cx="360" cy="200" r="1.4" fill="#1c1c20"/><circle cx="400" cy="200" r="1.4" fill="#1c1c20"/><circle cx="440" cy="200" r="1.4" fill="#1c1c20"/><circle cx="480" cy="200" r="1.4" fill="#1c1c20"/><circle cx="520" cy="200" r="1.4" fill="#1c1c20"/><circle cx="560" cy="200" r="1.4" fill="#1c1c20"/><circle cx="600" cy="200" r="1.4" fill="#1c1c20"/><circle cx="640" cy="200" r="1.4" fill="#1c1c20"/><circle cx="680" cy="200" r="1.4" fill="#1c1c20"/><circle cx="720" cy="200" r="1.4" fill="#1c1c20"/><circle cx="760" cy="200" r="1.4" fill="#1c1c20"/><circle cx="800" cy="200" r="1.4" fill="#1c1c20"/><circle cx="840" cy="200" r="1.4" fill="#1c1c20"/><circle cx="880" cy="200" r="1.4" fill="#1c1c20"/><circle cx="920" cy="200" r="1.4" fill="#1c1c20"/><circle cx="960" cy="200" r="1.4" fill="#1c1c20"/><circle cx="1000" cy="200" r="1.4" fill="#1c1c20"/><circle cx="1040" cy="200" r="1.4" fill="#1c1c20"/><circle cx="1080" cy="200" r="1.4" fill="#1c1c20"/><circle cx="1120" cy="200" r="1.4" fill="#1c1c20"/><circle cx="1160" cy="200" r="1.4" fill="#1c1c20"/><circle cx="40" cy="240" r="1.4" fill="#1c1c20"/><circle cx="80" cy="240" r="1.4" fill="#1c1c20"/><circle cx="120" cy="240" r="1.4" fill="#1c1c20"/><circle cx="160" cy="240" r="1.4" fill="#1c1c20"/><circle cx="200" cy="240" r="1.4" fill="#1c1c20"/><circle cx="240" cy="240" r="1.4" fill="#1c1c20"/><circle cx="280" cy="240" r="1.4" fill="#1c1c20"/><circle cx="320" cy="240" r="1.4" fill="#1c1c20"/><circle cx="360" cy="240" r="1.4" fill="#1c1c20"/><circle cx="400" cy="240" r="1.4" fill="#1c1c20"/><circle cx="440" cy="240" r="1.4" fill="#1c1c20"/><circle cx="480" cy="240" r="1.4" fill="#1c1c20"/><circle cx="520" cy="240" r="1.4" fill="#1c1c20"/><circle cx="560" cy="240" r="1.4" fill="#1c1c20"/><circle cx="600" cy="240" r="1.4" fill="#1c1c20"/><circle cx="640" cy="240" r="1.4" fill="#1c1c20"/><circle cx="680" cy="240" r="1.4" fill="#1c1c20"/><circle cx="720" cy="240" r="1.4" fill="#1c1c20"/><circle cx="760" cy="240" r="1.4" fill="#1c1c20"/><circle cx="800" cy="240" r="1.4" fill="#1c1c20"/><circle cx="840" cy="240" r="1.4" fill="#1c1c20"/><circle cx="880" cy="240" r="1.4" fill="#1c1c20"/><circle cx="920" cy="240" r="1.4" fill="#1c1c20"/><circle cx="960" cy="240" r="1.4" fill="#1c1c20"/><circle cx="1000" cy="240" r="1.4" fill="#1c1c20"/><circle cx="1040" cy="240" r="1.4" fill="#1c1c20"/><circle cx="1080" cy="240" r="1.4" fill="#1c1c20"/><circle cx="1120" cy="240" r="1.4" fill="#1c1c20"/><circle cx="1160" cy="240" r="1.4" fill="#1c1c20"/><circle cx="40" cy="280" r="1.4" fill="#1c1c20"/><circle cx="80" cy="280" r="1.4" fill="#1c1c20"/><circle cx="120" cy="280" r="1.4" fill="#1c1c20"/><circle cx="160" cy="280" r="1.4" fill="#1c1c20"/><circle cx="200" cy="280" r="1.4" fill="#1c1c20"/><circle cx="240" cy="280" r="1.4" fill="#1c1c20"/><circle cx="280" cy="280" r="1.4" fill="#1c1c20"/><circle cx="320" cy="280" r="1.4" fill="#1c1c20"/><circle cx="360" cy="280" r="1.4" fill="#1c1c20"/><circle cx="400" cy="280" r="1.4" fill="#1c1c20"/><circle cx="440" cy="280" r="1.4" fill="#1c1c20"/><circle cx="480" cy="280" r="1.4" fill="#1c1c20"/><circle cx="520" cy="280" r="1.4" fill="#1c1c20"/><circle cx="560" cy="280" r="1.4" fill="#1c1c20"/><circle cx="600" cy="280" r="1.4" fill="#1c1c20"/><circle cx="640" cy="280" r="1.4" fill="#1c1c20"/><circle cx="680" cy="280" r="1.4" fill="#1c1c20"/><circle cx="720" cy="280" r="1.4" fill="#1c1c20"/><circle cx="760" cy="280" r="1.4" fill="#1c1c20"/><circle cx="800" cy="280" r="1.4" fill="#1c1c20"/><circle cx="840" cy="280" r="1.4" fill="#1c1c20"/><circle cx="880" cy="280" r="1.4" fill="#1c1c20"/><circle cx="920" cy="280" r="1.4" fill="#1c1c20"/><circle cx="960" cy="280" r="1.4" fill="#1c1c20"/><circle cx="1000" cy="280" r="1.4" fill="#1c1c20"/><circle cx="1040" cy="280" r="1.4" fill="#1c1c20"/><circle cx="1080" cy="280" r="1.4" fill="#1c1c20"/><circle cx="1120" cy="280" r="1.4" fill="#1c1c20"/><circle cx="1160" cy="280" r="1.4" fill="#1c1c20"/><circle cx="40" cy="320" r="1.4" fill="#1c1c20"/><circle cx="80" cy="320" r="1.4" fill="#1c1c20"/><circle cx="120" cy="320" r="1.4" fill="#1c1c20"/><circle cx="160" cy="320" r="1.4" fill="#1c1c20"/><circle cx="200" cy="320" r="1.4" fill="#1c1c20"/><circle cx="240" cy="320" r="1.4" fill="#1c1c20"/><circle cx="280" cy="320" r="1.4" fill="#1c1c20"/><circle cx="320" cy="320" r="1.4" fill="#1c1c20"/><circle cx="360" cy="320" r="1.4" fill="#1c1c20"/><circle cx="400" cy="320" r="1.4" fill="#1c1c20"/><circle cx="440" cy="320" r="1.4" fill="#1c1c20"/><circle cx="480" cy="320" r="1.4" fill="#1c1c20"/><circle cx="520" cy="320" r="1.4" fill="#1c1c20"/><circle cx="560" cy="320" r="1.4" fill="#1c1c20"/><circle cx="600" cy="320" r="1.4" fill="#1c1c20"/><circle cx="640" cy="320" r="1.4" fill="#1c1c20"/><circle cx="680" cy="320" r="1.4" fill="#1c1c20"/><circle cx="720" cy="320" r="1.4" fill="#1c1c20"/><circle cx="760" cy="320" r="1.4" fill="#1c1c20"/><circle cx="800" cy="320" r="1.4" fill="#1c1c20"/><circle cx="840" cy="320" r="1.4" fill="#1c1c20"/><circle cx="880" cy="320" r="1.4" fill="#1c1c20"/><circle cx="920" cy="320" r="1.4" fill="#1c1c20"/><circle cx="960" cy="320" r="1.4" fill="#1c1c20"/><circle cx="1000" cy="320" r="1.4" fill="#1c1c20"/><circle cx="1040" cy="320" r="1.4" fill="#1c1c20"/><circle cx="1080" cy="320" r="1.4" fill="#1c1c20"/><circle cx="1120" cy="320" r="1.4" fill="#1c1c20"/><circle cx="1160" cy="320" r="1.4" fill="#1c1c20"/><circle cx="40" cy="360" r="1.4" fill="#1c1c20"/><circle cx="80" cy="360" r="1.4" fill="#1c1c20"/><circle cx="120" cy="360" r="1.4" fill="#1c1c20"/><circle cx="160" cy="360" r="1.4" fill="#1c1c20"/><circle cx="200" cy="360" r="1.4" fill="#1c1c20"/><circle cx="240" cy="360" r="1.4" fill="#1c1c20"/><circle cx="280" cy="360" r="1.4" fill="#1c1c20"/><circle cx="320" cy="360" r="1.4" fill="#1c1c20"/><circle cx="360" cy="360" r="1.4" fill="#1c1c20"/><circle cx="400" cy="360" r="1.4" fill="#1c1c20"/><circle cx="440" cy="360" r="1.4" fill="#1c1c20"/><circle cx="480" cy="360" r="1.4" fill="#1c1c20"/><circle cx="520" cy="360" r="1.4" fill="#1c1c20"/><circle cx="560" cy="360" r="1.4" fill="#1c1c20"/><circle cx="600" cy="360" r="1.4" fill="#1c1c20"/><circle cx="640" cy="360" r="1.4" fill="#1c1c20"/><circle cx="680" cy="360" r="1.4" fill="#1c1c20"/><circle cx="720" cy="360" r="1.4" fill="#1c1c20"/><circle cx="760" cy="360" r="1.4" fill="#1c1c20"/><circle cx="800" cy="360" r="1.4" fill="#1c1c20"/><circle cx="840" cy="360" r="1.4" fill="#1c1c20"/><circle cx="880" cy="360" r="1.4" fill="#1c1c20"/><circle cx="920" cy="360" r="1.4" fill="#1c1c20"/><circle cx="960" cy="360" r="1.4" fill="#1c1c20"/><circle cx="1000" cy="360" r="1.4" fill="#1c1c20"/><circle cx="1040" cy="360" r="1.4" fill="#1c1c20"/><circle cx="1080" cy="360" r="1.4" fill="#1c1c20"/><circle cx="1120" cy="360" r="1.4" fill="#1c1c20"/><circle cx="1160" cy="360" r="1.4" fill="#1c1c20"/><circle cx="40" cy="400" r="1.4" fill="#1c1c20"/><circle cx="80" cy="400" r="1.4" fill="#1c1c20"/><circle cx="120" cy="400" r="1.4" fill="#1c1c20"/><circle cx="160" cy="400" r="1.4" fill="#1c1c20"/><circle cx="200" cy="400" r="1.4" fill="#1c1c20"/><circle cx="240" cy="400" r="1.4" fill="#1c1c20"/><circle cx="280" cy="400" r="1.4" fill="#1c1c20"/><circle cx="320" cy="400" r="1.4" fill="#1c1c20"/><circle cx="360" cy="400" r="1.4" fill="#1c1c20"/><circle cx="400" cy="400" r="1.4" fill="#1c1c20"/><circle cx="440" cy="400" r="1.4" fill="#1c1c20"/><circle cx="480" cy="400" r="1.4" fill="#1c1c20"/><circle cx="520" cy="400" r="1.4" fill="#1c1c20"/><circle cx="560" cy="400" r="1.4" fill="#1c1c20"/><circle cx="600" cy="400" r="1.4" fill="#1c1c20"/><circle cx="640" cy="400" r="1.4" fill="#1c1c20"/><circle cx="680" cy="400" r="1.4" fill="#1c1c20"/><circle cx="720" cy="400" r="1.4" fill="#1c1c20"/><circle cx="760" cy="400" r="1.4" fill="#1c1c20"/><circle cx="800" cy="400" r="1.4" fill="#1c1c20"/><circle cx="840" cy="400" r="1.4" fill="#1c1c20"/><circle cx="880" cy="400" r="1.4" fill="#1c1c20"/><circle cx="920" cy="400" r="1.4" fill="#1c1c20"/><circle cx="960" cy="400" r="1.4" fill="#1c1c20"/><circle cx="1000" cy="400" r="1.4" fill="#1c1c20"/><circle cx="1040" cy="400" r="1.4" fill="#1c1c20"/><circle cx="1080" cy="400" r="1.4" fill="#1c1c20"/><circle cx="1120" cy="400" r="1.4" fill="#1c1c20"/><circle cx="1160" cy="400" r="1.4" fill="#1c1c20"/><circle cx="40" cy="440" r="1.4" fill="#1c1c20"/><circle cx="80" cy="440" r="1.4" fill="#1c1c20"/><circle cx="120" cy="440" r="1.4" fill="#1c1c20"/><circle cx="160" cy="440" r="1.4" fill="#1c1c20"/><circle cx="200" cy="440" r="1.4" fill="#1c1c20"/><circle cx="240" cy="440" r="1.4" fill="#1c1c20"/><circle cx="280" cy="440" r="1.4" fill="#1c1c20"/><circle cx="320" cy="440" r="1.4" fill="#1c1c20"/><circle cx="360" cy="440" r="1.4" fill="#1c1c20"/><circle cx="400" cy="440" r="1.4" fill="#1c1c20"/><circle cx="440" cy="440" r="1.4" fill="#1c1c20"/><circle cx="480" cy="440" r="1.4" fill="#1c1c20"/><circle cx="520" cy="440" r="1.4" fill="#1c1c20"/><circle cx="560" cy="440" r="1.4" fill="#1c1c20"/><circle cx="600" cy="440" r="1.4" fill="#1c1c20"/><circle cx="640" cy="440" r="1.4" fill="#1c1c20"/><circle cx="680" cy="440" r="1.4" fill="#1c1c20"/><circle cx="720" cy="440" r="1.4" fill="#1c1c20"/><circle cx="760" cy="440" r="1.4" fill="#1c1c20"/><circle cx="800" cy="440" r="1.4" fill="#1c1c20"/><circle cx="840" cy="440" r="1.4" fill="#1c1c20"/><circle cx="880" cy="440" r="1.4" fill="#1c1c20"/><circle cx="920" cy="440" r="1.4" fill="#1c1c20"/><circle cx="960" cy="440" r="1.4" fill="#1c1c20"/><circle cx="1000" cy="440" r="1.4" fill="#1c1c20"/><circle cx="1040" cy="440" r="1.4" fill="#1c1c20"/><circle cx="1080" cy="440" r="1.4" fill="#1c1c20"/><circle cx="1120" cy="440" r="1.4" fill="#1c1c20"/><circle cx="1160" cy="440" r="1.4" fill="#1c1c20"/><circle cx="40" cy="480" r="1.4" fill="#1c1c20"/><circle cx="80" cy="480" r="1.4" fill="#1c1c20"/><circle cx="120" cy="480" r="1.4" fill="#1c1c20"/><circle cx="160" cy="480" r="1.4" fill="#1c1c20"/><circle cx="200" cy="480" r="1.4" fill="#1c1c20"/><circle cx="240" cy="480" r="1.4" fill="#1c1c20"/><circle cx="280" cy="480" r="1.4" fill="#1c1c20"/><circle cx="320" cy="480" r="1.4" fill="#1c1c20"/><circle cx="360" cy="480" r="1.4" fill="#1c1c20"/><circle cx="400" cy="480" r="1.4" fill="#1c1c20"/><circle cx="440" cy="480" r="1.4" fill="#1c1c20"/><circle cx="480" cy="480" r="1.4" fill="#1c1c20"/><circle cx="520" cy="480" r="1.4" fill="#1c1c20"/><circle cx="560" cy="480" r="1.4" fill="#1c1c20"/><circle cx="600" cy="480" r="1.4" fill="#1c1c20"/><circle cx="640" cy="480" r="1.4" fill="#1c1c20"/><circle cx="680" cy="480" r="1.4" fill="#1c1c20"/><circle cx="720" cy="480" r="1.4" fill="#1c1c20"/><circle cx="760" cy="480" r="1.4" fill="#1c1c20"/><circle cx="800" cy="480" r="1.4" fill="#1c1c20"/><circle cx="840" cy="480" r="1.4" fill="#1c1c20"/><circle cx="880" cy="480" r="1.4" fill="#1c1c20"/><circle cx="920" cy="480" r="1.4" fill="#1c1c20"/><circle cx="960" cy="480" r="1.4" fill="#1c1c20"/><circle cx="1000" cy="480" r="1.4" fill="#1c1c20"/><circle cx="1040" cy="480" r="1.4" fill="#1c1c20"/><circle cx="1080" cy="480" r="1.4" fill="#1c1c20"/><circle cx="1120" cy="480" r="1.4" fill="#1c1c20"/><circle cx="1160" cy="480" r="1.4" fill="#1c1c20"/><circle cx="40" cy="520" r="1.4" fill="#1c1c20"/><circle cx="80" cy="520" r="1.4" fill="#1c1c20"/><circle cx="120" cy="520" r="1.4" fill="#1c1c20"/><circle cx="160" cy="520" r="1.4" fill="#1c1c20"/><circle cx="200" cy="520" r="1.4" fill="#1c1c20"/><circle cx="240" cy="520" r="1.4" fill="#1c1c20"/><circle cx="280" cy="520" r="1.4" fill="#1c1c20"/><circle cx="320" cy="520" r="1.4" fill="#1c1c20"/><circle cx="360" cy="520" r="1.4" fill="#1c1c20"/><circle cx="400" cy="520" r="1.4" fill="#1c1c20"/><circle cx="440" cy="520" r="1.4" fill="#1c1c20"/><circle cx="480" cy="520" r="1.4" fill="#1c1c20"/><circle cx="520" cy="520" r="1.4" fill="#1c1c20"/><circle cx="560" cy="520" r="1.4" fill="#1c1c20"/><circle cx="600" cy="520" r="1.4" fill="#1c1c20"/><circle cx="640" cy="520" r="1.4" fill="#1c1c20"/><circle cx="680" cy="520" r="1.4" fill="#1c1c20"/><circle cx="720" cy="520" r="1.4" fill="#1c1c20"/><circle cx="760" cy="520" r="1.4" fill="#1c1c20"/><circle cx="800" cy="520" r="1.4" fill="#1c1c20"/><circle cx="840" cy="520" r="1.4" fill="#1c1c20"/><circle cx="880" cy="520" r="1.4" fill="#1c1c20"/><circle cx="920" cy="520" r="1.4" fill="#1c1c20"/><circle cx="960" cy="520" r="1.4" fill="#1c1c20"/><circle cx="1000" cy="520" r="1.4" fill="#1c1c20"/><circle cx="1040" cy="520" r="1.4" fill="#1c1c20"/><circle cx="1080" cy="520" r="1.4" fill="#1c1c20"/><circle cx="1120" cy="520" r="1.4" fill="#1c1c20"/><circle cx="1160" cy="520" r="1.4" fill="#1c1c20"/><circle cx="40" cy="560" r="1.4" fill="#1c1c20"/><circle cx="80" cy="560" r="1.4" fill="#1c1c20"/><circle cx="120" cy="560" r="1.4" fill="#1c1c20"/><circle cx="160" cy="560" r="1.4" fill="#1c1c20"/><circle cx="200" cy="560" r="1.4" fill="#1c1c20"/><circle cx="240" cy="560" r="1.4" fill="#1c1c20"/><circle cx="280" cy="560" r="1.4" fill="#1c1c20"/><circle cx="320" cy="560" r="1.4" fill="#1c1c20"/><circle cx="360" cy="560" r="1.4" fill="#1c1c20"/><circle cx="400" cy="560" r="1.4" fill="#1c1c20"/><circle cx="440" cy="560" r="1.4" fill="#1c1c20"/><circle cx="480" cy="560" r="1.4" fill="#1c1c20"/><circle cx="520" cy="560" r="1.4" fill="#1c1c20"/><circle cx="560" cy="560" r="1.4" fill="#1c1c20"/><circle cx="600" cy="560" r="1.4" fill="#1c1c20"/><circle cx="640" cy="560" r="1.4" fill="#1c1c20"/><circle cx="680" cy="560" r="1.4" fill="#1c1c20"/><circle cx="720" cy="560" r="1.4" fill="#1c1c20"/><circle cx="760" cy="560" r="1.4" fill="#1c1c20"/><circle cx="800" cy="560" r="1.4" fill="#1c1c20"/><circle cx="840" cy="560" r="1.4" fill="#1c1c20"/><circle cx="880" cy="560" r="1.4" fill="#1c1c20"/><circle cx="920" cy="560" r="1.4" fill="#1c1c20"/><circle cx="960" cy="560" r="1.4" fill="#1c1c20"/><circle cx="1000" cy="560" r="1.4" fill="#1c1c20"/><circle cx="1040" cy="560" r="1.4" fill="#1c1c20"/><circle cx="1080" cy="560" r="1.4" fill="#1c1c20"/><circle cx="1120" cy="560" r="1.4" fill="#1c1c20"/><circle cx="1160" cy="560" r="1.4" fill="#1c1c20"/><circle cx="40" cy="600" r="1.4" fill="#1c1c20"/><circle cx="80" cy="600" r="1.4" fill="#1c1c20"/><circle cx="120" cy="600" r="1.4" fill="#1c1c20"/><circle cx="160" cy="600" r="1.4" fill="#1c1c20"/><circle cx="200" cy="600" r="1.4" fill="#1c1c20"/><circle cx="240" cy="600" r="1.4" fill="#1c1c20"/><circle cx="280" cy="600" r="1.4" fill="#1c1c20"/><circle cx="320" cy="600" r="1.4" fill="#1c1c20"/><circle cx="360" cy="600" r="1.4" fill="#1c1c20"/><circle cx="400" cy="600" r="1.4" fill="#1c1c20"/><circle cx="440" cy="600" r="1.4" fill="#1c1c20"/><circle cx="480" cy="600" r="1.4" fill="#1c1c20"/><circle cx="520" cy="600" r="1.4" fill="#1c1c20"/><circle cx="560" cy="600" r="1.4" fill="#1c1c20"/><circle cx="600" cy="600" r="1.4" fill="#1c1c20"/><circle cx="640" cy="600" r="1.4" fill="#1c1c20"/><circle cx="680" cy="600" r="1.4" fill="#1c1c20"/><circle cx="720" cy="600" r="1.4" fill="#1c1c20"/><circle cx="760" cy="600" r="1.4" fill="#1c1c20"/><circle cx="800" cy="600" r="1.4" fill="#1c1c20"/><circle cx="840" cy="600" r="1.4" fill="#1c1c20"/><circle cx="880" cy="600" r="1.4" fill="#1c1c20"/><circle cx="920" cy="600" r="1.4" fill="#1c1c20"/><circle cx="960" cy="600" r="1.4" fill="#1c1c20"/><circle cx="1000" cy="600" r="1.4" fill="#1c1c20"/><circle cx="1040" cy="600" r="1.4" fill="#1c1c20"/><circle cx="1080" cy="600" r="1.4" fill="#1c1c20"/><circle cx="1120" cy="600" r="1.4" fill="#1c1c20"/><circle cx="1160" cy="600" r="1.4" fill="#1c1c20"/>
<line x1="998.8" y1="305.3" x2="991.2" y2="308.4" stroke="#27272a" stroke-width="1.2" stroke-opacity="0.55"/><line x1="998.8" y1="305.3" x2="945.1" y2="305.9" stroke="#27272a" stroke-width="1.2" stroke-opacity="0.55"/><line x1="897.9" y1="263.3" x2="945.1" y2="305.9" stroke="#27272a" stroke-width="1.2" stroke-opacity="0.55"/><line x1="897.9" y1="263.3" x2="858.4" y2="211.3" stroke="#27272a" stroke-width="1.2" stroke-opacity="0.55"/><line x1="858.4" y1="211.3" x2="811.0" y2="176.5" stroke="#27272a" stroke-width="1.2" stroke-opacity="0.55"/><line x1="991.2" y1="308.4" x2="945.1" y2="305.9" stroke="#27272a" stroke-width="1.2" stroke-opacity="0.55"/><line x1="864.8" y1="333.9" x2="897.9" y2="263.3" stroke="#27272a" stroke-width="1.2" stroke-opacity="0.55"/><line x1="864.8" y1="333.9" x2="945.1" y2="305.9" stroke="#27272a" stroke-width="1.2" stroke-opacity="0.55"/><line x1="518.9" y1="114.5" x2="811.0" y2="176.5" stroke="#22c55e" stroke-width="2.0" stroke-opacity="0.9"/><line x1="909.8" y1="166.9" x2="858.4" y2="211.3" stroke="#27272a" stroke-width="1.2" stroke-opacity="0.55"/><line x1="909.8" y1="166.9" x2="897.9" y2="263.3" stroke="#27272a" stroke-width="1.2" stroke-opacity="0.55"/><circle cx="998.8" cy="305.3" r="6.1" fill="#111113" stroke="#71717a" stroke-width="1.5"/><circle cx="897.9" cy="263.3" r="7.4" fill="#111113" stroke="#71717a" stroke-width="1.5"/><circle cx="858.4" cy="211.3" r="6.3" fill="#111113" stroke="#71717a" stroke-width="1.5"/><circle cx="991.2" cy="308.4" r="7.0" fill="#111113" stroke="#71717a" stroke-width="1.5"/><circle cx="864.8" cy="333.9" r="7.3" fill="#111113" stroke="#71717a" stroke-width="1.5"/><circle cx="518.9" cy="114.5" r="13" fill="#22c55e" filter="url(#glow)"/><circle cx="518.9" cy="114.5" r="22" fill="none" stroke="#22c55e" stroke-width="1.5" stroke-opacity="0.4"/><circle cx="909.8" cy="166.9" r="4.4" fill="#111113" stroke="#71717a" stroke-width="1.5"/><circle cx="811.0" cy="176.5" r="7.7" fill="#111113" stroke="#71717a" stroke-width="1.5"/><circle cx="945.1" cy="305.9" r="7.7" fill="#111113" stroke="#71717a" stroke-width="1.5"/>


<text x="64" y="596" font-family="'JetBrains Mono', ui-monospace, monospace" font-size="16" letter-spacing="1" fill="#71717a">supergood<tspan fill="#22c55e">.</tspan>solutions</text>
</svg>